<?xml version="1.0" standalone="no"?>
<!DOCTYPE svg PUBLIC "-//W3C//DTD SVG 20010904//EN"
 "http://www.w3.org/TR/2001/REC-SVG-20010904/DTD/svg10.dtd">
<svg version="1.0" xmlns="http://www.w3.org/2000/svg"
 width="1280.000000pt" height="1124.000000pt" viewBox="0 0 1280.000000 1124.000000"
 preserveAspectRatio="xMidYMid meet">
<metadata>
Created by potrace 1.15, written by Peter Selinger 2001-2017
</metadata>
<g transform="translate(0.000000,1124.000000) scale(0.100000,-0.100000)"
fill="#000000" stroke="none">
<path d="M6385 11232 c-41 -14 -104 -89 -97 -116 7 -22 -12 -67 -41 -100 -31
-34 -67 -48 -67 -26 0 6 -10 10 -22 9 -15 0 -38 -18 -63 -49 -22 -27 -45 -47
-51 -45 -15 5 -64 -42 -64 -62 0 -12 -3 -13 -14 -3 -12 9 -16 5 -22 -25 -3
-20 -2 -53 4 -73 6 -21 9 -50 7 -67 -3 -27 9 -152 21 -212 2 -13 12 -23 20
-23 11 0 14 -5 10 -17 -4 -10 2 -24 15 -36 14 -13 19 -26 15 -43 -4 -14 -2
-24 4 -24 6 0 8 -10 4 -25 -5 -19 -2 -25 11 -25 15 0 16 -8 10 -66 -6 -51 -4
-68 6 -75 12 -8 12 -10 0 -18 -11 -7 -11 -10 1 -17 24 -14 50 -110 53 -193 1
-42 9 -89 16 -105 11 -23 11 -30 1 -34 -16 -5 -15 -45 3 -89 9 -20 12 -46 9
-57 -18 -59 -77 -166 -99 -180 -27 -18 -35 -70 -12 -80 10 -5 10 -7 0 -12 -17
-8 -16 -76 1 -111 8 -15 20 -47 27 -70 11 -38 10 -45 -6 -63 -18 -20 -52 -19
-66 2 -3 5 -14 6 -24 2 -12 -5 -16 -4 -11 4 10 17 -13 55 -29 48 -9 -3 -20 7
-31 29 -20 43 -34 45 -34 4 0 -17 -4 -28 -10 -24 -6 4 -8 -5 -6 -22 2 -15 1
-22 -1 -15 -2 6 -9 12 -14 12 -11 0 -2 -68 17 -131 8 -25 12 -53 8 -62 -6 -16
30 -102 50 -122 38 -36 93 -68 154 -88 38 -13 92 -40 120 -60 49 -35 50 -37
56 -99 11 -117 13 -128 15 -85 2 62 21 42 21 -23 0 -33 -4 -60 -9 -60 -5 0
-11 -63 -13 -140 -3 -125 -5 -141 -23 -155 -11 -8 -28 -13 -37 -11 -10 2 -18
0 -18 -5 0 -5 -12 -9 -26 -9 -21 0 -24 4 -19 20 5 14 2 20 -10 20 -8 0 -18 -7
-20 -15 -16 -49 -13 -47 -39 -30 -16 11 -28 33 -36 65 -6 27 -17 51 -24 53
-20 8 -61 188 -46 197 18 11 3 30 -17 23 -13 -5 -15 -2 -10 12 7 18 -51 217
-65 223 -4 2 -4 10 -1 18 3 8 1 14 -5 14 -5 0 -13 12 -16 28 -11 48 -28 82
-37 76 -5 -3 -9 9 -9 26 0 18 -6 33 -15 36 -8 4 -12 10 -9 15 3 6 0 16 -6 24
-6 8 -9 19 -5 25 3 5 1 10 -6 10 -6 0 -9 8 -6 20 3 12 -1 23 -10 29 -11 6 -12
10 -4 15 16 10 14 26 -4 26 -8 0 -16 3 -16 8 -1 4 -3 22 -5 40 -2 18 -13 43
-25 55 -11 12 -34 51 -50 86 -16 35 -39 77 -51 94 -14 19 -23 49 -25 86 -4 66
-9 81 -23 81 -6 0 -8 -4 -5 -10 3 -5 2 -10 -3 -10 -15 0 -92 88 -92 104 0 9
-4 16 -10 16 -5 0 -21 24 -34 53 -18 36 -34 56 -56 65 -16 8 -30 19 -30 26 0
13 -44 56 -58 56 -16 0 -77 63 -64 68 22 7 1 22 -32 22 -19 0 -39 6 -45 13
-12 16 -37 16 -66 0 -60 -32 -152 -26 -157 10 -3 20 -6 18 -47 -18 l-43 -39
-39 43 c-21 23 -39 47 -39 53 0 15 -27 38 -35 30 -4 -4 -6 -2 -5 3 8 37 -28
49 -60 20 -20 -18 -90 -9 -90 12 0 22 -71 5 -95 -24 -11 -12 -25 -23 -31 -23
-5 0 -17 -9 -27 -20 -24 -29 -84 -27 -127 5 -18 13 -36 22 -40 20 -5 -3 -10 2
-14 10 -9 24 -20 18 -79 -40 -46 -46 -59 -54 -74 -46 -10 5 -39 17 -65 27 -26
9 -55 25 -64 35 -9 11 -25 19 -35 19 -10 0 -27 14 -39 30 -12 17 -27 30 -35
30 -7 0 -20 11 -29 25 -9 14 -21 23 -27 20 -5 -4 -7 -10 -4 -15 12 -20 -15
-17 -81 7 -38 13 -79 27 -91 30 -13 3 -23 11 -23 18 0 9 -29 12 -112 11 -81
-1 -112 2 -115 12 -3 6 -9 12 -14 12 -6 0 -7 -6 -3 -12 6 -10 4 -10 -7 0 -7 6
-23 12 -35 12 -12 0 -27 7 -34 15 -7 9 -19 14 -26 11 -8 -3 -11 0 -7 10 4 12
0 14 -21 8 -20 -5 -26 -2 -26 10 0 11 -9 16 -30 16 -16 0 -30 5 -30 11 0 5 -4
8 -9 4 -5 -3 -21 0 -35 6 -18 8 -29 9 -38 2 -36 -29 -190 -21 -213 11 -16 21
-35 20 -35 -2 0 -13 -13 -22 -49 -31 -61 -16 -84 -31 -76 -53 4 -9 12 -15 19
-12 7 3 19 -2 26 -11 11 -13 11 -21 2 -36 -18 -28 -16 -29 33 -29 56 0 57 -12
11 -85 -36 -55 -67 -75 -91 -55 -10 8 -14 8 -18 -2 -4 -10 -7 -10 -15 1 -5 7
-14 11 -18 8 -5 -3 -18 1 -29 9 -13 10 -16 17 -9 22 29 19 29 127 -1 116 -7
-3 -22 3 -33 14 -11 11 -23 17 -27 14 -4 -4 -11 1 -16 11 -11 19 -54 23 -64 6
-11 -17 -117 0 -145 25 -14 12 -41 30 -60 40 -19 10 -44 27 -55 36 -29 26 -86
46 -117 42 -15 -2 -49 -23 -77 -48 -27 -24 -53 -44 -58 -44 -5 0 -28 -25 -51
-56 -37 -50 -42 -63 -43 -113 -1 -31 -3 -81 -4 -111 -2 -30 0 -59 5 -65 11
-14 15 -84 7 -110 -5 -16 0 -25 23 -39 17 -9 49 -42 72 -72 23 -30 53 -61 67
-69 14 -8 21 -14 15 -15 -6 0 -9 -10 -7 -24 4 -21 -1 -28 -41 -46 -25 -11 -46
-24 -46 -29 0 -5 18 -27 40 -50 22 -23 43 -55 46 -71 4 -16 12 -31 20 -34 8
-3 14 -11 14 -18 0 -13 25 -45 85 -110 14 -15 25 -29 25 -32 0 -3 10 -16 23
-30 12 -13 38 -47 57 -76 19 -28 45 -62 58 -76 12 -14 22 -29 22 -35 0 -5 7
-9 15 -9 16 0 38 -34 28 -44 -3 -3 5 -6 18 -6 43 0 119 -32 119 -51 0 -9 8
-19 18 -23 9 -3 24 -10 32 -15 18 -11 51 -24 67 -25 6 -1 24 -12 40 -26 15
-14 40 -31 55 -39 15 -8 30 -23 34 -34 4 -14 12 -17 27 -13 12 4 83 7 157 7
95 1 125 4 100 10 -28 6 -23 7 25 4 43 -3 55 -1 45 6 -11 8 -1 9 37 5 39 -4
53 -1 57 10 3 8 1 14 -3 14 -11 0 -9 19 3 38 6 10 11 10 21 2 16 -13 39 -4 30
11 -4 5 1 12 10 15 10 4 27 -3 44 -20 15 -14 38 -26 52 -26 43 0 219 33 219
42 0 4 15 8 34 8 23 0 39 7 49 20 8 11 16 18 19 15 7 -7 39 30 42 49 3 20 47
67 57 61 4 -3 11 -1 14 5 4 6 15 8 26 5 19 -6 24 5 20 48 -1 9 2 17 6 17 5 0
8 39 7 88 -3 124 -3 122 -19 122 -18 0 -20 21 -3 38 9 9 8 12 -5 12 -21 0 -34
63 -18 96 6 14 11 34 11 44 0 11 5 20 10 20 14 0 13 53 -2 68 -9 9 -9 18 0 37
11 23 9 29 -13 51 -14 14 -25 31 -25 39 0 8 -4 15 -10 15 -5 0 -10 9 -10 20 0
11 5 20 10 20 6 0 10 8 10 18 0 11 -13 23 -35 31 -19 7 -40 21 -45 32 -6 10
-17 19 -25 19 -8 0 -15 6 -15 13 0 7 -14 24 -31 36 -26 19 -35 21 -55 12 -13
-6 -24 -15 -24 -21 0 -5 -9 -10 -20 -10 -11 0 -20 -6 -20 -12 -1 -23 -79 -98
-101 -98 -4 0 -12 20 -18 45 -6 25 -15 45 -20 45 -11 0 -8 46 2 57 11 11 8 72
-5 92 -6 11 -8 26 -3 37 4 11 7 26 6 35 -3 28 22 37 113 40 76 3 90 1 101 -15
8 -10 19 -15 24 -11 15 9 53 -4 46 -16 -4 -5 12 -9 33 -9 23 0 45 -6 52 -15 7
-8 23 -15 36 -15 13 0 24 -4 24 -10 0 -5 9 -10 20 -10 12 0 32 -7 45 -16 13
-9 33 -13 44 -9 10 3 22 1 26 -5 3 -5 13 -10 21 -10 8 0 32 -13 52 -29 20 -17
49 -33 65 -36 30 -8 64 -45 73 -82 4 -12 10 -20 15 -17 5 3 6 -2 3 -10 -4 -11
0 -16 10 -16 9 0 16 -8 16 -20 0 -11 5 -20 11 -20 6 0 9 -7 5 -15 -5 -14 31
-58 37 -45 1 2 14 -6 29 -20 20 -17 29 -36 34 -72 4 -26 10 -48 15 -48 5 0 9
-11 9 -25 0 -16 6 -25 16 -25 8 0 13 -4 10 -9 -3 -5 1 -22 9 -37 8 -16 15 -35
15 -41 0 -7 7 -13 15 -13 10 0 15 -10 15 -34 0 -30 2 -33 25 -29 19 4 27 0 36
-21 7 -14 21 -28 32 -32 11 -3 16 -9 11 -13 -22 -15 -8 -45 24 -55 19 -5 45
-24 59 -43 16 -21 34 -33 49 -33 13 0 27 -8 33 -17 8 -16 12 -16 38 -3 15 8
30 18 33 21 10 14 47 14 63 0 9 -7 33 -15 54 -18 38 -5 141 -81 125 -92 -18
-13 0 -50 60 -127 26 -34 48 -67 48 -73 0 -7 5 -9 10 -6 6 3 10 -1 10 -10 0
-10 7 -15 18 -13 32 5 90 -50 107 -103 9 -27 27 -57 41 -68 13 -10 24 -26 24
-35 0 -9 5 -16 10 -16 6 0 10 -6 10 -14 0 -20 25 -65 49 -87 12 -11 21 -28 21
-38 0 -11 14 -49 30 -86 17 -37 30 -82 30 -101 0 -26 4 -34 18 -34 22 0 44
-34 35 -56 -4 -11 1 -22 12 -30 25 -19 32 -107 12 -154 -9 -19 -29 -48 -45
-63 -26 -25 -32 -27 -58 -17 -34 13 -74 48 -74 66 0 48 -88 173 -161 229 -28
21 -49 45 -49 56 0 10 -7 19 -15 19 -9 0 -37 23 -64 50 -27 28 -53 50 -58 50
-12 0 -53 43 -53 57 0 14 -45 33 -80 33 -16 0 -36 7 -45 17 -15 14 -23 15 -64
4 -48 -12 -101 -3 -101 18 0 15 -69 43 -90 36 -12 -4 -20 -2 -20 5 0 6 -10 8
-25 4 -14 -3 -25 -2 -25 4 0 10 -42 8 -59 -2 -5 -4 -12 -2 -15 2 -3 5 -22 8
-43 6 -21 -1 -42 1 -48 6 -6 5 -30 11 -53 12 -23 2 -42 7 -42 11 0 5 -27 6
-60 2 -47 -5 -60 -4 -58 6 2 7 -5 15 -16 17 -10 2 -16 0 -12 -6 7 -12 -17 -22
-52 -21 -24 0 -25 1 -7 9 16 7 13 9 -17 9 -20 1 -38 -4 -40 -11 -3 -8 -14 -7
-38 5 -35 18 -95 23 -86 8 8 -12 -39 -20 -56 -10 -19 12 -68 11 -68 -1 0 -6
-17 -10 -40 -8 -25 1 -40 7 -40 15 0 15 -66 18 -75 3 -3 -5 -20 -8 -38 -5 -30
4 -108 -18 -133 -37 -14 -11 -118 -38 -144 -38 -22 0 -27 15 -7 24 6 3 -1 4
-18 1 -114 -16 -114 -16 -145 -55 -16 -21 -30 -45 -30 -53 0 -8 -7 -20 -15
-27 -8 -7 -15 -19 -15 -26 0 -8 -4 -14 -10 -14 -6 0 -10 -27 -10 -60 0 -33 4
-60 10 -60 6 0 10 -16 10 -35 0 -19 -4 -35 -9 -35 -5 0 -12 -13 -16 -30 -4
-16 -12 -33 -18 -37 -23 -15 -98 -30 -103 -21 -3 5 -13 8 -22 6 -10 -1 -22 1
-29 5 -6 4 -14 3 -18 -2 -10 -18 -36 0 -30 20 5 15 1 19 -15 19 -12 0 -18 4
-15 10 4 7 -2 9 -19 4 -30 -7 -82 14 -111 46 -10 11 -24 20 -31 20 -7 0 -14
10 -16 23 -4 23 -5 23 -49 12 -18 -4 -32 0 -52 17 -14 13 -41 30 -59 39 -18 9
-58 28 -88 43 -30 14 -62 26 -71 26 -9 0 -19 3 -23 8 -4 4 -11 7 -14 8 -64 9
-99 21 -120 40 -26 25 -42 30 -42 15 0 -16 -40 -23 -55 -11 -9 8 -80 16 -180
21 -154 9 -171 12 -227 39 -33 16 -64 27 -68 25 -5 -3 -10 0 -12 5 -2 7 -28 7
-82 0 -43 -7 -89 -9 -102 -6 -34 9 -80 52 -121 113 l-36 55 -81 -7 c-99 -7
-120 -8 -171 -6 -22 0 -57 0 -77 -2 -21 -1 -38 1 -38 5 0 4 -7 8 -16 8 -8 0
-13 -4 -9 -9 10 -17 -33 -22 -77 -10 -24 7 -51 11 -60 10 -10 -1 -18 3 -18 10
0 7 -11 10 -30 7 -17 -3 -30 -1 -30 4 0 13 -82 9 -110 -5 -14 -7 -25 -22 -26
-33 -1 -12 -5 -27 -10 -35 -4 -8 -7 -64 -5 -125 2 -72 -1 -114 -8 -119 -6 -3
-11 -32 -11 -64 0 -44 -4 -62 -19 -75 -13 -12 -22 -38 -26 -77 -4 -32 -11 -62
-16 -65 -12 -7 -11 -48 1 -60 6 -6 11 -44 12 -85 1 -74 -11 -116 -38 -132 -8
-4 -14 -24 -14 -44 0 -29 3 -33 14 -24 10 8 16 8 25 -2 6 -8 8 -17 5 -20 -4
-3 -3 -14 1 -24 4 -10 9 -31 11 -48 7 -61 16 -101 29 -130 8 -16 19 -49 24
-71 6 -23 18 -47 26 -54 8 -7 15 -21 15 -31 0 -10 11 -30 25 -45 15 -17 25
-39 25 -58 0 -27 6 -34 48 -53 26 -12 58 -25 71 -29 13 -3 36 -17 51 -30 15
-14 34 -30 43 -37 8 -6 17 -19 18 -27 4 -20 -11 -80 -20 -80 -7 0 -35 -51 -45
-82 -8 -27 -87 -25 -104 2 -7 11 -18 20 -25 20 -6 0 -27 13 -45 29 -18 16 -48
32 -67 35 -19 4 -35 11 -35 16 0 13 -37 13 -45 -1 -4 -6 -26 -8 -56 -4 -37 5
-49 3 -49 -7 -1 -18 -60 -79 -96 -99 -16 -9 -44 -16 -62 -14 -44 3 -52 -19
-52 -137 0 -100 15 -139 69 -177 28 -20 46 -22 70 -7 9 6 19 2 31 -14 12 -16
24 -21 39 -17 28 7 91 -11 92 -26 0 -7 2 -31 4 -54 2 -24 -1 -43 -6 -43 -5 0
-9 -11 -9 -25 0 -14 4 -25 8 -25 5 0 8 -21 8 -47 l-1 -47 62 0 c46 0 68 5 82
18 19 18 21 17 50 -5 16 -13 30 -27 30 -31 1 -5 -19 -17 -44 -29 -25 -12 -57
-35 -72 -53 -14 -17 -28 -30 -31 -28 -2 2 -10 -7 -16 -20 -6 -13 -20 -23 -31
-23 -14 0 -27 -14 -42 -45 -20 -40 -21 -49 -10 -85 7 -22 19 -51 27 -65 8 -14
13 -35 11 -48 -2 -15 6 -30 22 -43 14 -10 28 -34 32 -52 17 -85 27 -109 40
-103 13 5 29 -37 24 -60 -4 -15 13 -44 25 -44 6 0 17 -15 25 -32 16 -37 67
-88 88 -88 7 0 13 -4 13 -9 0 -5 8 -7 19 -4 13 3 37 -14 83 -61 56 -57 67 -64
78 -51 19 23 46 18 82 -14 l33 -29 -55 -55 c-41 -42 -66 -58 -98 -65 -24 -6
-60 -26 -85 -46 -64 -56 -66 -58 -78 -51 -5 4 -21 -1 -35 -10 -14 -9 -28 -14
-31 -11 -5 5 -47 -21 -86 -54 -10 -8 -27 -34 -38 -57 -15 -31 -27 -43 -43 -43
-41 0 -191 -144 -232 -222 -26 -50 -31 -73 -14 -63 6 4 18 1 26 -6 11 -9 18
-8 34 6 11 10 26 15 35 12 8 -4 15 -1 15 5 0 7 16 8 49 4 35 -5 51 -3 54 6 3
7 6 9 6 3 1 -6 26 -9 61 -7 48 3 61 1 66 -12 5 -12 21 -16 74 -16 64 0 94 10
70 25 -5 3 -10 1 -10 -4 0 -6 -17 -11 -37 -10 -21 0 -33 2 -28 4 6 1 37 11 70
20 69 21 132 66 141 101 7 26 24 33 24 10 0 -7 11 -16 25 -18 17 -4 25 -1 25
8 0 8 9 14 20 14 11 0 20 6 20 14 0 16 42 33 84 35 16 0 35 6 42 12 9 7 19 6
36 -3 31 -18 36 -25 30 -54 -3 -17 3 -33 18 -50 13 -13 19 -24 13 -24 -6 0
-14 -7 -17 -16 -5 -13 -2 -15 16 -11 l23 6 -22 -19 c-23 -19 -30 -60 -17 -108
5 -18 9 -20 21 -11 12 10 13 8 10 -12 -2 -13 -7 -31 -11 -40 -4 -9 -2 -38 4
-65 7 -27 11 -89 11 -137 -1 -58 2 -86 9 -82 5 3 10 -3 10 -14 0 -10 4 -21 9
-23 6 -1 11 -23 12 -48 1 -25 5 -49 8 -55 11 -20 28 -96 22 -100 -7 -4 -7 -60
0 -80 1 -5 -1 -29 -5 -52 -6 -34 -4 -47 12 -70 11 -15 28 -52 37 -80 11 -35
22 -53 32 -53 9 0 13 -3 10 -7 -8 -7 21 -43 34 -43 4 0 9 10 11 22 2 16 9 22
21 20 10 -2 26 3 34 10 9 7 21 13 27 13 17 2 49 17 68 33 10 8 24 12 33 8 11
-4 19 2 25 19 6 16 15 23 25 19 11 -5 15 1 15 19 0 14 5 29 11 33 6 4 9 19 5
36 -5 24 -2 31 14 35 14 4 20 14 20 34 0 22 5 29 20 29 11 0 20 6 20 13 0 6
12 23 25 36 14 12 22 27 19 32 -3 5 -1 9 5 9 6 0 15 19 22 42 6 23 22 55 35
71 13 16 24 37 24 48 0 11 4 18 9 14 14 -8 32 30 24 52 -6 15 -4 16 9 5 13
-10 16 -9 21 10 4 12 2 25 -3 28 -17 10 7 32 28 26 11 -4 23 -2 27 4 3 5 -2
10 -12 10 -10 0 -14 4 -8 8 6 4 11 18 13 32 1 14 7 26 12 28 6 2 6 11 -1 24
-7 13 -7 18 -1 14 21 -13 99 179 81 200 -12 15 5 29 22 18 7 -4 10 -1 7 7 -2
7 -1 18 4 24 5 5 22 30 38 55 16 25 54 81 84 125 31 44 56 85 56 90 0 6 9 27
19 47 11 19 17 39 14 42 -4 3 5 6 20 6 14 0 32 -6 39 -13 20 -20 46 -27 52
-14 2 7 5 4 5 -7 1 -11 6 -16 15 -13 15 6 77 -12 87 -25 3 -4 18 -9 35 -11 16
-2 41 -10 57 -17 36 -17 50 -4 51 49 2 63 36 49 36 -14 0 -13 -4 -27 -10 -30
-6 -3 -10 -29 -10 -56 0 -32 -9 -69 -24 -102 -33 -71 -45 -114 -49 -168 -1
-26 -8 -54 -16 -62 -11 -14 -10 -24 5 -64 9 -26 21 -53 25 -58 4 -6 6 -51 4
-100 -3 -61 -1 -80 5 -60 7 23 8 15 8 -40 -1 -39 5 -88 11 -108 10 -29 10 -49
2 -82 -14 -55 -14 -162 -1 -170 6 -3 10 -19 10 -36 0 -16 4 -37 9 -47 11 -22
23 -52 52 -127 13 -33 32 -72 42 -87 10 -16 15 -32 12 -38 -3 -5 -2 -10 4 -10
6 0 8 -6 5 -14 -3 -7 2 -16 10 -19 8 -3 20 -24 27 -46 7 -23 16 -41 20 -41 4
0 10 -13 14 -30 5 -21 13 -30 26 -30 10 0 20 -6 20 -12 1 -7 3 -20 4 -28 5
-53 49 -102 84 -94 20 4 22 3 11 -5 -10 -7 2 -9 45 -6 46 3 53 2 30 -5 l-30
-8 35 1 c20 1 34 7 33 14 -2 7 21 14 57 18 33 4 60 10 60 14 0 8 73 31 100 31
11 0 20 -5 20 -12 0 -9 3 -9 12 0 7 7 18 12 26 12 8 0 20 7 27 16 9 14 16 14
33 5 18 -9 22 -9 20 1 -2 9 6 12 25 10 15 -1 27 2 27 8 0 5 7 10 16 10 9 0 28
8 42 18 15 10 59 24 97 31 61 12 75 18 109 55 33 34 41 38 44 23 3 -14 7 -15
17 -7 9 7 12 23 8 46 -5 31 -4 34 18 32 13 -2 27 -7 31 -13 5 -6 12 -5 20 3 6
6 39 13 73 14 55 1 57 2 15 6 l-45 5 70 12 c42 7 75 9 81 3 8 -5 14 -3 17 7 4
8 13 12 21 9 19 -7 76 23 76 40 0 17 64 41 85 32 25 -9 65 -163 67 -255 1 -58
7 -95 20 -122 10 -21 18 -46 18 -56 0 -10 7 -38 16 -63 9 -25 13 -56 11 -70
-3 -14 1 -33 8 -43 9 -13 12 -36 8 -73 -3 -30 -1 -59 4 -66 15 -19 24 -78 13
-78 -6 0 -10 -11 -10 -25 0 -14 5 -25 10 -25 6 0 10 -6 10 -12 0 -7 6 -25 14
-40 8 -15 17 -40 21 -57 4 -17 11 -31 16 -31 6 0 7 -15 3 -35 -4 -25 -3 -35 6
-35 8 0 11 -10 7 -27 -3 -16 1 -43 9 -61 9 -23 10 -40 4 -58 -6 -15 -6 -31 -1
-42 5 -9 17 -64 26 -122 10 -58 21 -125 25 -150 4 -24 12 -46 18 -48 7 -2 9
-21 5 -53 -4 -32 -2 -49 5 -49 15 0 20 -30 11 -63 -6 -20 -2 -37 10 -60 10
-18 21 -51 25 -74 5 -35 2 -47 -15 -64 -11 -11 -18 -23 -15 -26 3 -4 6 -3 6 1
0 4 7 1 15 -8 8 -8 15 -24 15 -35 0 -12 4 -21 10 -21 5 0 12 -11 16 -25 3 -14
10 -22 15 -19 5 3 9 -6 9 -20 0 -24 -13 -35 -23 -18 -2 4 -2 1 0 -6 1 -8 3
-22 3 -33 0 -12 5 -16 15 -13 9 4 16 0 17 -7 5 -48 4 -69 -4 -69 -5 0 -7 -4
-3 -10 3 -5 0 -18 -7 -29 -10 -16 -9 -23 4 -38 9 -10 17 -22 17 -26 0 -11 46
-47 60 -47 6 0 11 -5 11 -11 0 -5 4 -8 9 -5 5 3 45 -30 90 -74 59 -58 88 -80
106 -80 15 0 24 -4 21 -9 -3 -5 1 -12 10 -15 8 -3 13 -9 10 -14 -2 -4 7 -9 20
-10 14 -1 40 -13 58 -27 18 -14 44 -25 57 -25 16 0 20 -3 11 -8 -8 -6 -1 -9
20 -9 17 0 34 -5 36 -12 3 -9 7 -9 18 0 20 16 44 4 45 -23 0 -13 3 -18 5 -12
7 17 49 5 59 -18 7 -15 21 -22 50 -24 90 -7 122 -11 132 -17 6 -4 14 -1 16 5
4 10 7 10 15 0 5 -7 16 -10 26 -6 11 4 22 1 28 -7 7 -11 11 -11 15 -1 2 6 16
12 29 12 14 0 22 -4 19 -10 -3 -5 1 -10 9 -10 9 0 16 5 16 11 0 5 4 8 8 5 5
-3 26 -1 47 5 32 9 40 8 47 -6 8 -13 12 -14 26 -3 14 11 15 10 9 -6 -6 -16 -4
-18 22 -13 17 4 33 2 37 -4 4 -8 9 -7 14 2 5 6 25 14 47 16 21 2 48 5 61 8 12
3 22 1 22 -5 0 -7 20 -10 55 -7 30 2 55 1 55 -4 0 -4 14 -10 31 -14 36 -8 231
-14 224 -7 -3 3 3 10 12 17 17 13 81 0 94 -19 4 -5 13 -6 21 -3 8 3 33 2 56
-3 24 -4 45 -4 47 0 3 4 43 7 90 5 55 -1 85 2 85 8 0 7 4 7 12 -1 16 -16 45
-15 51 1 4 9 8 9 15 -2 6 -8 24 -13 44 -11 18 1 45 2 61 3 22 0 25 3 16 13 -9
11 -8 14 5 14 9 0 16 -4 16 -10 0 -5 13 -7 30 -4 18 4 36 1 45 -6 10 -9 15 -9
15 -1 0 7 17 10 43 10 l42 -2 -40 -7 c-22 -4 58 -7 178 -7 119 0 213 3 207 7
-5 3 6 6 25 6 20 0 31 -4 28 -11 -3 -5 0 -4 8 3 16 15 61 16 76 1 8 -8 16 -4
31 11 14 15 28 21 41 17 12 -3 21 -1 21 5 0 6 7 8 15 4 9 -3 46 10 83 30 50
27 79 36 119 36 42 1 57 6 75 25 14 15 28 21 40 17 10 -3 18 -1 18 5 0 6 7 11
16 11 9 0 22 7 28 15 6 9 21 17 33 18 12 0 20 4 17 8 -2 4 4 13 13 20 13 11
17 11 20 1 3 -6 9 -9 14 -6 6 4 6 11 -1 19 -16 20 0 25 79 26 39 1 69 5 66 9
-5 9 12 23 30 26 6 0 16 2 24 2 7 1 11 8 7 17 -3 8 -1 15 4 15 6 0 10 6 10 13
0 27 40 57 75 57 26 0 33 3 29 15 -4 10 0 15 11 15 9 0 13 -4 10 -10 -3 -5 -2
-10 3 -10 5 0 12 9 15 21 4 13 10 18 17 14 9 -5 10 -1 5 15 -6 18 -4 22 8 17
29 -11 46 50 46 159 -1 211 -1 213 26 238 25 23 34 43 15 31 -5 -3 -10 -1 -10
5 0 6 7 13 15 16 8 4 15 14 15 23 0 9 6 40 14 69 7 29 9 52 5 52 -5 0 -9 12
-9 26 0 14 4 23 9 20 5 -3 11 3 14 14 3 11 1 18 -4 14 -5 -3 -9 4 -9 15 0 12
5 21 11 21 7 0 8 11 4 30 -4 17 -2 30 3 30 15 0 24 63 10 71 -23 14 5 169 33
189 7 5 14 37 29 127 4 29 14 69 20 89 7 20 10 51 7 70 -3 19 -2 34 3 34 9 0
12 29 8 92 -4 88 -2 122 10 126 7 2 12 11 12 21 0 9 7 27 16 39 9 13 14 34 11
48 -2 13 0 24 6 24 5 0 7 10 4 22 -4 12 -2 28 4 34 6 7 12 43 13 79 2 36 6 68
9 71 3 3 3 21 0 40 -3 19 -1 34 4 34 5 0 8 15 5 32 -4 32 -4 32 13 13 l16 -20
-4 20 c-3 11 -6 25 -8 30 -3 11 18 91 32 117 13 26 41 227 34 249 -4 11 -2 19
5 19 7 0 10 7 7 15 -4 8 -2 17 2 19 5 3 11 29 15 58 4 28 12 60 17 70 14 25
13 162 0 166 -18 6 -13 26 10 40 13 8 18 19 14 31 -10 34 22 54 77 48 30 -4
46 -2 43 3 -9 14 4 12 20 -3 7 -7 38 -19 70 -26 51 -11 58 -11 69 4 10 14 17
15 34 6 11 -6 23 -7 26 -3 6 11 74 6 90 -6 12 -10 171 0 199 12 11 5 17 4 17
-4 0 -8 12 -10 40 -5 45 8 57 -10 15 -21 -28 -7 -34 -34 -7 -34 9 -1 35 -8 57
-16 22 -9 47 -17 55 -18 8 -2 23 -7 33 -11 10 -4 24 -2 32 5 12 10 16 9 21 -4
4 -10 13 -15 21 -12 9 4 11 2 7 -6 -5 -7 1 -9 19 -6 15 3 24 2 22 -2 -6 -9 53
-52 64 -46 4 3 17 -2 27 -12 41 -37 106 -73 121 -67 19 7 55 -23 46 -39 -3 -6
-3 -8 2 -4 4 4 13 0 20 -9 7 -9 26 -16 44 -16 17 0 31 -4 31 -9 0 -4 4 -8 10
-8 5 0 33 -15 62 -34 58 -37 98 -52 98 -38 0 5 14 9 30 9 17 0 30 -4 30 -9 0
-4 9 -8 19 -8 11 0 34 -14 51 -31 22 -23 43 -33 75 -37 25 -2 42 -8 40 -12 -3
-5 4 -6 16 -3 12 4 32 -3 51 -17 22 -16 32 -19 38 -10 4 7 30 11 66 10 32 -1
74 2 93 7 29 7 46 3 103 -24 116 -56 117 -54 110 140 -2 84 -8 154 -12 157
-12 9 -18 99 -7 103 6 2 7 11 2 23 -8 19 -12 37 -19 88 -2 15 -8 31 -13 35
-15 10 -7 101 10 114 8 7 17 19 20 27 2 8 3 2 1 -15 -3 -22 -1 -26 6 -15 5 8
10 23 10 33 0 9 7 17 15 17 8 0 15 5 15 10 0 9 -14 14 -32 11 -5 0 -8 3 -8 9
0 5 5 10 10 10 6 0 11 17 10 38 0 20 2 76 5 124 5 82 4 88 -19 105 -18 15 -22
26 -18 53 9 73 3 128 -22 190 -14 35 -26 72 -26 82 0 29 -39 139 -55 155 -8 8
-19 31 -25 53 -6 22 -17 45 -24 53 -9 9 -11 19 -5 28 16 25 9 53 -22 88 l-30
35 43 38 c38 33 47 37 77 32 46 -9 96 -38 153 -91 26 -24 53 -43 60 -43 8 0
38 -25 68 -55 30 -31 61 -53 68 -50 7 2 11 1 8 -3 -7 -11 218 -235 227 -226 4
4 7 1 7 -7 0 -17 51 -69 67 -69 6 0 25 -16 42 -35 17 -19 35 -35 41 -35 6 0
14 -9 18 -19 4 -11 48 -63 97 -117 50 -53 99 -108 110 -122 11 -14 56 -64 99
-111 44 -47 120 -133 169 -191 49 -58 103 -112 119 -122 16 -9 36 -25 43 -35
8 -10 15 -14 15 -9 0 5 10 0 23 -11 12 -11 39 -30 61 -42 36 -21 40 -21 57 -5
11 9 19 23 19 31 0 8 5 11 10 8 6 -3 10 0 10 8 0 7 -11 20 -25 27 -15 8 -25
22 -25 36 0 14 -12 31 -29 43 -21 15 -31 33 -36 61 -4 22 -10 42 -15 45 -5 3
-11 23 -15 45 -4 22 -11 40 -16 40 -4 0 -6 6 -3 13 2 7 -4 22 -16 32 -13 12
-20 31 -20 57 0 24 -4 37 -10 33 -5 -3 -10 1 -10 9 0 9 4 16 9 16 5 0 4 11 -2
25 -7 14 -15 25 -19 25 -5 0 -8 23 -8 50 0 44 -3 52 -25 62 -13 6 -28 20 -31
32 -4 12 -12 24 -18 28 -8 5 -7 11 2 20 14 14 16 84 2 93 -6 4 -7 11 -4 17 4
6 1 14 -6 18 -9 6 -10 19 -2 56 7 34 7 51 0 55 -10 6 -7 41 7 84 4 15 -2 29
-19 48 -29 32 -33 52 -11 61 21 8 19 26 -2 26 -14 0 -15 2 -4 9 9 6 10 11 2
15 -6 4 -11 14 -11 23 0 17 -72 93 -88 93 -6 0 -27 14 -45 30 -19 17 -38 30
-42 30 -7 0 -27 18 -107 93 -22 20 -43 37 -46 37 -13 1 -54 75 -68 119 -13 44
-9 101 7 101 5 0 9 25 9 56 0 30 -3 53 -7 51 -5 -3 -9 35 -10 84 -1 84 -3 92
-35 136 -19 26 -43 47 -55 49 -13 2 -41 22 -64 44 -23 22 -48 40 -55 40 -8 0
-14 5 -14 10 0 6 -9 10 -19 10 -11 0 -23 5 -26 10 -4 6 -15 8 -26 5 -11 -4
-19 -2 -19 6 0 9 -4 8 -15 -1 -12 -10 -16 -9 -21 4 -4 9 -18 16 -34 16 -15 0
-48 11 -73 25 -35 18 -61 24 -99 23 -30 -1 -63 5 -75 12 -18 12 -24 12 -39 -1
-13 -11 -18 -11 -21 -1 -3 6 -16 12 -29 12 -15 0 -24 6 -24 16 0 9 -6 14 -12
11 -7 -2 -40 -12 -73 -22 -33 -9 -68 -21 -78 -26 -26 -14 -34 -4 -47 57 -7 30
-18 58 -26 61 -9 3 -12 13 -9 23 6 18 -43 109 -58 110 -12 0 -46 42 -47 56 0
16 -44 54 -63 54 -9 0 -17 5 -17 10 0 16 -24 11 -41 -9 -22 -25 -32 -98 -19
-141 15 -47 22 -104 23 -172 1 -46 -3 -62 -21 -81 -12 -13 -22 -32 -22 -43 0
-15 -8 -20 -32 -22 -38 -2 -76 -20 -99 -44 -9 -10 -20 -18 -25 -18 -5 0 -21
-13 -36 -30 -37 -42 -78 -43 -196 -4 -40 14 -103 28 -140 31 -85 8 -110 19
-166 71 -50 47 -56 50 -56 25 0 -40 -20 6 -24 56 -5 66 -35 111 -74 111 -28 0
-92 58 -92 84 0 28 104 118 126 109 8 -3 21 0 29 7 8 6 18 9 24 6 5 -3 12 1
15 10 3 8 10 13 14 10 5 -3 71 1 148 8 92 9 143 10 152 3 8 -6 17 -5 27 3 8 7
30 14 47 15 18 2 38 3 45 4 7 1 10 8 7 16 -4 8 -1 15 6 15 7 0 9 8 5 20 -5 15
-2 20 13 20 10 0 22 3 26 8 4 4 11 7 15 7 10 0 111 106 111 117 0 4 -4 8 -10
8 -5 0 -6 8 -3 17 9 23 52 63 68 63 7 0 20 9 30 20 14 16 18 40 20 122 2 127
8 148 38 141 26 -7 67 -42 67 -58 0 -11 53 -55 66 -55 4 0 15 -6 23 -14 9 -7
30 -18 48 -24 27 -9 36 -8 55 8 21 16 27 17 63 4 46 -16 113 -11 195 14 54 16
110 55 110 77 0 6 10 19 21 29 20 16 23 16 37 2 13 -12 13 -18 4 -28 -7 -7
-12 -23 -12 -36 0 -42 -48 -78 -138 -101 -45 -11 -84 -21 -87 -21 -16 0 -1
-22 24 -34 22 -12 31 -12 41 -3 10 9 14 9 17 0 7 -18 51 -16 70 3 11 11 19 12
26 5 15 -15 50 -14 41 1 -5 7 -2 9 9 5 9 -3 18 0 21 8 3 8 12 12 21 9 8 -3 15
-1 15 5 0 6 7 8 15 5 9 -4 15 0 15 10 0 9 6 17 13 18 6 0 17 2 22 2 14 2 92
56 80 56 -5 0 0 7 11 15 12 8 31 13 43 10 14 -2 44 14 91 50 40 29 86 56 106
60 24 4 38 13 41 26 3 10 9 16 14 13 24 -14 48 12 87 95 39 82 82 141 103 141
5 0 9 7 9 15 0 9 12 27 26 40 14 13 23 29 19 34 -3 6 1 11 10 11 16 0 39 45
30 60 -3 5 0 10 7 12 17 6 23 175 7 205 -10 19 -10 28 -1 43 7 11 12 33 12 49
0 16 6 34 14 40 8 7 18 26 21 42 4 16 10 29 15 29 19 0 56 138 41 153 -14 14
-14 47 -1 47 6 0 10 11 10 24 0 14 5 28 11 32 6 4 8 20 5 39 -4 19 -2 36 4 40
17 11 11 82 -11 120 -12 20 -19 38 -16 41 3 4 2 11 -3 18 -45 55 -56 73 -53
82 6 17 -96 104 -121 104 -22 0 -82 19 -103 33 -6 4 -14 3 -18 -3 -4 -7 -14
-5 -28 5 -12 8 -40 15 -63 15 -28 0 -44 5 -48 15 -3 8 -12 15 -19 15 -8 0 -54
23 -103 51 -87 50 -89 51 -154 45 -36 -3 -76 -7 -90 -10 -14 -2 -34 -5 -45 -6
-11 0 -37 -15 -58 -33 -32 -28 -39 -40 -41 -79 l-3 -45 106 1 c58 0 113 -4
122 -9 9 -6 38 -29 64 -53 46 -43 46 -44 29 -70 -28 -42 -77 -82 -101 -82 -13
0 -23 -4 -23 -9 0 -19 -34 -20 -75 -1 -24 11 -47 24 -50 30 -3 6 -24 19 -46
29 -46 22 -45 23 -52 -60 -3 -31 -11 -67 -18 -80 -7 -13 -15 -31 -19 -39 -11
-24 -23 -17 -58 36 -17 27 -42 57 -55 66 -12 9 -22 21 -22 27 0 11 -55 50
-107 74 -21 10 -38 21 -38 26 0 14 -64 28 -92 20 -15 -4 -29 -4 -32 -1 -10 10
-60 11 -66 2 -3 -5 -24 -11 -45 -12 -22 -2 -43 -7 -47 -13 -7 -10 -14 -11
-103 -18 -64 -5 -135 -36 -135 -59 0 -10 9 -27 20 -38 20 -20 28 -60 12 -60
-5 0 -16 -33 -26 -74 -10 -41 -24 -80 -32 -87 -17 -14 -17 -104 -1 -126 5 -7
6 -24 3 -37 -3 -14 -2 -28 4 -31 5 -3 10 -13 10 -22 0 -8 11 -24 25 -35 14
-11 23 -23 20 -28 -3 -5 -1 -10 4 -12 5 -1 11 -25 14 -53 3 -27 8 -57 12 -67
4 -11 -3 -23 -25 -40 -17 -12 -35 -23 -40 -23 -5 0 -12 -3 -16 -8 -4 -4 -24
-7 -44 -7 -21 0 -48 -8 -61 -17 -69 -51 -139 -70 -139 -38 0 17 -25 20 -35 5
-11 -18 -34 -11 -51 16 -11 16 -14 28 -7 32 5 4 10 43 11 87 1 44 5 93 8 109
4 19 3 26 -5 22 -7 -5 -9 3 -5 24 4 19 2 30 -5 30 -6 0 -11 9 -11 20 0 12 -5
17 -13 14 -10 -3 -14 4 -15 26 -1 45 -11 70 -27 64 -7 -3 -16 -1 -20 5 -3 6
-1 11 4 11 6 0 11 5 11 11 0 5 -4 7 -10 4 -13 -8 -13 41 0 66 6 10 17 19 25
19 7 0 17 9 20 20 3 11 13 20 22 20 24 0 103 53 103 69 0 8 6 11 17 7 10 -4
14 -4 10 0 -4 4 -2 13 4 21 21 25 -34 15 -66 -13 -16 -14 -45 -32 -65 -40 -19
-9 -42 -20 -50 -25 -58 -36 -135 -47 -145 -22 -4 12 -14 14 -40 10 -19 -3 -37
-2 -40 3 -3 5 -13 6 -22 3 -11 -5 -14 -3 -8 6 5 9 2 12 -11 9 -14 -2 -19 -13
-20 -38 -4 -86 -16 -125 -52 -162 -20 -21 -39 -38 -42 -38 -7 0 -33 49 -34 65
-1 6 -13 10 -28 10 -14 1 -33 6 -41 13 -10 9 -28 9 -63 3 -27 -5 -52 -7 -57
-4 -4 2 -18 -2 -30 -10 -44 -29 -163 -40 -192 -17 -18 14 -98 26 -170 25 -38
0 -72 3 -75 7 -3 4 -27 2 -53 -5 -33 -8 -53 -21 -65 -40 -10 -15 -22 -24 -25
-20 -7 7 -11 -10 -8 -39 1 -10 -4 -18 -13 -18 -14 0 -22 -24 -17 -52 0 -5 -4
-8 -9 -8 -6 0 -10 -9 -10 -20 0 -45 -99 -95 -165 -83 -22 5 -25 11 -25 44 0
22 5 39 10 39 6 0 10 9 10 20 0 12 11 32 25 44 l26 24 -43 4 c-40 4 -69 0
-110 -17 -12 -5 -18 0 -21 17 -4 20 -4 19 -6 -5 0 -16 -19 -64 -42 -108 -23
-43 -39 -86 -35 -94 3 -8 -2 -29 -11 -47 -30 -61 -33 -68 -33 -83 0 -8 -15
-21 -34 -29 -40 -17 -88 -66 -81 -83 2 -7 0 -13 -5 -13 -5 0 -7 -14 -3 -32 5
-26 3 -30 -9 -25 -12 4 -17 -5 -22 -45 -4 -27 -11 -55 -17 -61 -39 -48 -49
-61 -49 -70 0 -5 -7 -6 -16 -3 -11 4 -14 1 -9 -12 3 -11 -4 -39 -15 -65 -18
-40 -25 -46 -63 -54 -23 -5 -58 -8 -77 -5 -19 2 -52 5 -72 6 -48 1 -62 16 -60
66 1 23 -2 50 -8 60 -10 19 5 79 23 91 5 4 8 25 5 46 -7 52 11 79 42 63 18 -9
21 -9 15 0 -4 7 -2 16 6 20 9 6 12 29 11 74 -1 53 2 70 17 85 11 11 24 44 31
75 10 50 14 56 36 56 14 0 38 -7 55 -15 27 -14 33 -14 79 6 28 12 50 25 50 30
0 7 27 5 103 -6 18 -3 26 -1 21 6 -3 6 14 29 39 52 24 23 54 62 65 87 12 25
22 41 22 35 1 -20 40 40 40 62 0 12 9 27 19 33 11 5 25 26 31 46 10 29 9 38
-3 52 -18 21 -28 62 -16 62 19 0 -13 41 -39 51 -34 13 -123 19 -116 7 9 -15
-33 -8 -46 7 -18 22 -31 19 -75 -20 -112 -98 -179 -178 -209 -249 -8 -18 -26
-45 -41 -59 -21 -19 -26 -32 -23 -51 3 -15 1 -29 -3 -32 -5 -3 -9 -15 -9 -28
0 -12 -3 -26 -7 -30 -7 -7 -12 -27 -15 -61 -1 -11 -6 -26 -11 -33 -11 -14 -67
-170 -65 -181 1 -3 -2 -13 -5 -21 -3 -8 -13 -37 -22 -63 -8 -27 -22 -61 -29
-75 -8 -15 -16 -40 -17 -57 -2 -16 -12 -39 -21 -49 -10 -11 -18 -25 -18 -31 0
-25 -36 -45 -68 -39 -27 6 -32 11 -32 35 0 17 -5 29 -12 29 -7 0 -2 6 11 13
14 6 28 25 32 41 9 34 3 47 -12 26 -9 -12 -10 -12 -5 3 3 10 6 25 6 33 0 8 8
14 19 14 14 0 22 12 31 48 7 26 26 87 42 136 15 49 26 91 23 94 -3 3 2 16 11
29 8 14 27 54 40 90 20 53 22 68 12 76 -10 7 -9 8 3 4 20 -6 41 47 34 86 -4
21 -1 27 12 28 10 0 5 5 -11 10 -35 10 -38 8 -40 -25 0 -14 -5 -26 -10 -26 -4
0 -6 -7 -2 -15 3 -8 1 -15 -4 -15 -14 0 -31 -38 -32 -70 -1 -16 -7 -31 -15
-34 -8 -3 -12 -10 -8 -15 3 -5 -3 -29 -14 -53 -29 -67 -62 -149 -74 -188 -6
-19 -15 -38 -20 -41 -5 -3 -9 -10 -9 -15 0 -5 -4 -19 -9 -32 -5 -13 -9 -32 -9
-43 0 -10 -5 -19 -11 -19 -7 0 -9 -10 -5 -26 4 -16 3 -23 -3 -19 -7 3 -8 0 -5
-9 4 -11 0 -16 -11 -16 -11 0 -15 -5 -12 -14 6 -15 -15 -79 -43 -131 -11 -20
-28 -32 -51 -38 -84 -20 -109 -24 -109 -16 0 5 -7 9 -15 9 -11 0 -14 7 -9 25
5 22 3 24 -12 18 -11 -3 -29 -13 -41 -21 -19 -12 -26 -12 -54 2 -18 9 -38 16
-46 16 -18 0 -16 17 3 24 13 5 15 18 9 84 -4 42 -10 79 -14 82 -6 4 -12 64
-15 138 -1 12 -4 22 -8 22 -5 0 -8 9 -8 21 0 15 5 19 15 15 8 -3 15 -1 15 5 0
7 22 10 60 7 56 -3 61 -1 89 30 17 17 35 33 40 33 6 1 16 3 21 4 6 1 14 3 18
4 14 2 46 66 48 96 1 17 5 54 8 83 5 37 3 52 -5 52 -8 0 -6 7 4 18 16 17 16
20 -6 39 -36 34 -173 47 -189 19 -5 -9 -16 -16 -24 -16 -23 0 -176 -146 -191
-182 -22 -52 -21 -117 2 -137 31 -26 45 -57 45 -98 0 -25 3 -33 9 -25 13 21
18 -1 20 -88 1 -41 6 -91 10 -112 5 -21 4 -58 -2 -87 -9 -46 -17 -59 -76 -111
-36 -33 -71 -58 -78 -55 -7 2 -13 1 -13 -4 0 -17 -64 -20 -77 -3 -18 23 -17
28 22 68 33 33 45 57 28 52 -5 -1 -18 4 -31 11 -19 10 -22 18 -17 42 11 49 13
97 4 110 -4 8 -3 19 3 26 7 9 7 17 -1 26 -6 8 -8 17 -4 20 3 4 -2 9 -11 13 -9
3 -16 11 -16 18 0 7 -18 30 -40 51 -22 21 -40 47 -40 57 0 10 -4 18 -8 18 -4
0 -21 21 -37 46 -16 25 -67 85 -115 134 l-86 89 3 162 c1 89 4 164 7 167 3 3
6 16 6 29 0 13 4 22 9 18 5 -3 16 1 24 10 8 8 31 16 50 18 19 2 56 16 82 30
l46 26 41 -26 c23 -14 53 -36 67 -49 14 -13 29 -24 34 -24 4 0 23 -16 42 -35
22 -21 41 -32 50 -28 9 3 23 -1 33 -10 9 -8 32 -22 50 -32 31 -15 36 -15 70 0
59 26 66 31 78 54 6 12 21 32 33 45 14 14 19 29 15 40 -5 12 -2 16 7 14 15 -3
79 38 92 59 4 7 14 10 23 6 10 -4 17 2 21 16 3 11 13 21 23 21 28 0 50 11 50
25 0 16 33 45 52 45 9 0 37 32 63 70 38 57 52 70 74 70 30 0 112 35 110 47 -4
26 3 44 16 41 22 -4 155 141 155 169 0 13 4 23 10 23 18 0 44 52 47 94 2 26
10 47 23 58 19 15 29 45 13 35 -13 -8 -5 84 12 153 10 36 17 76 17 90 0 14 4
30 9 36 5 6 6 40 3 75 -3 35 -6 76 -7 90 -1 14 -7 32 -13 40 -6 8 -15 24 -18
36 -4 11 -13 27 -21 33 -8 7 -15 21 -15 31 0 12 -18 31 -47 49 -27 17 -50 41
-53 53 -4 13 -15 23 -30 25 -22 4 -22 3 -7 -13 10 -9 14 -21 11 -27 -4 -6 -10
-5 -15 3 -5 9 -28 14 -61 14 -36 1 -52 5 -50 13 1 7 -10 12 -29 12 -16 0 -28
-4 -25 -9 3 -5 -8 -14 -25 -20 -17 -6 -47 -27 -66 -47 l-34 -37 45 -46 c25
-26 46 -54 46 -63 0 -8 6 -21 14 -27 17 -14 40 -96 31 -110 -15 -25 -118 -2
-129 28 -4 9 -13 27 -21 41 -8 14 -15 40 -15 58 0 17 -4 32 -10 32 -5 0 -7 7
-4 15 4 8 1 15 -5 15 -6 0 -11 7 -11 15 0 18 -42 58 -85 82 -49 27 -92 25
-138 -4 -55 -35 -173 -63 -261 -63 -67 0 -217 31 -241 49 -11 9 -18 10 -132
11 -46 1 -88 -2 -95 -6 -7 -5 -25 -7 -40 -6 -15 1 -28 -2 -28 -8 0 -5 -7 -10
-16 -10 -9 0 -42 -23 -75 -50 -57 -50 -87 -104 -75 -135 3 -8 1 -17 -4 -20 -6
-4 -10 -23 -10 -44 0 -53 -16 -92 -50 -119 -27 -21 -31 -22 -58 -8 -42 21 -48
55 -17 83 20 18 65 110 65 135 0 6 -20 17 -95 49 -11 4 -31 9 -45 11 -17 2
-26 10 -28 26 -2 12 -8 22 -14 22 -6 0 -7 11 -3 27 4 16 3 25 -1 21 -11 -12
-33 24 -34 53 0 15 6 32 14 39 11 8 13 25 9 63 -8 80 -83 377 -101 406 -16 23
-16 25 0 19 11 -5 18 0 21 13 7 26 30 24 80 -8 64 -40 123 -42 196 -7 33 16
60 35 61 42 0 15 -1 15 46 -2 22 -7 44 -11 50 -9 6 2 14 -6 17 -18 3 -11 12
-19 19 -17 7 3 19 -1 26 -9 37 -36 144 14 204 94 16 22 63 53 79 53 7 0 21 8
32 18 13 11 21 13 24 6 2 -6 15 -9 29 -6 18 3 22 8 14 17 -7 9 -5 19 9 36 l20
24 -6 -22 c-8 -32 2 -29 30 10 32 41 43 77 25 77 -20 0 -83 61 -71 68 5 4 27
52 48 106 21 54 44 111 51 125 8 14 14 32 14 39 0 6 5 12 12 12 6 0 8 3 5 7
-4 3 -2 13 5 20 9 11 9 16 -1 23 -10 6 -11 8 -1 12 10 3 10 7 -1 19 -8 8 -15
21 -17 29 -10 47 -64 31 -82 -24 -6 -20 -18 -36 -26 -36 -8 0 -14 -4 -14 -9 0
-4 -19 -21 -42 -36 -24 -15 -56 -43 -72 -62 -33 -40 -103 -86 -116 -78 -15 9
-10 136 6 152 18 18 18 64 0 108 -8 19 -13 35 -10 35 3 0 -8 14 -25 31 -17 17
-31 34 -31 38 0 4 -22 7 -48 6 -56 -1 -112 11 -112 25 0 11 -153 12 -185 2z
m1585 -1412 c0 -5 -4 -10 -10 -10 -5 0 -10 5 -10 10 0 6 5 10 10 10 6 0 10 -4
10 -10z m-2924 -47 c8 -3 14 -9 14 -14 0 -5 11 -7 25 -3 27 7 65 -17 65 -41 0
-6 13 -18 30 -26 16 -8 57 -41 92 -74 35 -33 75 -68 89 -77 28 -18 113 -124
130 -161 14 -33 33 -61 47 -70 6 -4 12 -17 12 -28 0 -11 5 -17 10 -14 6 3 10
-3 10 -14 0 -12 4 -21 10 -21 5 0 7 -7 3 -15 -3 -9 2 -24 11 -34 9 -10 13 -21
9 -24 -3 -4 -1 -7 6 -7 8 0 11 -7 7 -15 -3 -9 0 -15 9 -15 8 0 15 -8 15 -18 0
-10 7 -27 15 -38 8 -10 15 -29 15 -41 0 -12 4 -24 9 -27 15 -10 42 -124 35
-151 -5 -22 -3 -27 16 -32 20 -5 22 -10 17 -57 -2 -28 -2 -43 0 -33 2 9 9 17
14 17 5 0 9 -8 9 -17 0 -10 12 -40 26 -68 15 -27 30 -72 35 -99 5 -27 12 -52
16 -55 13 -9 33 -60 32 -79 0 -14 -2 -13 -9 3 -5 11 -9 15 -9 8 -2 -20 11 -43
20 -37 5 3 9 -6 9 -20 0 -14 3 -27 8 -29 4 -3 6 -19 6 -36 -1 -17 -2 -45 -3
-62 -1 -22 -7 -32 -21 -36 -11 -3 -18 -9 -15 -13 3 -4 -9 -10 -25 -12 -17 -3
-30 -1 -30 3 0 12 -44 -2 -57 -18 -6 -8 -16 -12 -22 -8 -6 3 -11 -1 -11 -9 0
-9 -6 -16 -13 -16 -8 0 -22 -9 -32 -20 -25 -27 -90 -28 -105 -1 -5 11 -7 27
-4 35 4 11 -2 19 -19 25 -20 8 -34 28 -41 63 0 3 -4 10 -8 14 -5 4 -8 17 -8
29 0 13 -10 27 -25 35 -13 7 -23 16 -22 20 1 3 -11 17 -26 31 -15 13 -29 36
-31 51 -1 14 -11 39 -21 55 -11 15 -19 31 -18 34 1 3 -9 18 -23 34 -13 15 -24
36 -24 47 0 10 -4 18 -10 18 -5 0 -9 4 -7 8 1 5 -11 25 -28 46 -16 21 -40 50
-52 65 -12 16 -20 30 -17 33 2 3 -2 11 -11 18 -8 7 -15 19 -15 27 0 8 -20 36
-46 61 -38 39 -42 47 -27 53 18 6 30 79 12 79 -5 0 -4 9 3 20 7 11 19 18 27
15 22 -9 48 4 54 25 3 11 1 20 -4 20 -5 0 -9 15 -9 33 1 39 45 80 61 56 7 -11
9 -10 9 4 0 9 -5 17 -11 17 -7 0 0 9 14 20 14 11 29 20 35 20 10 0 27 138 18
147 -3 4 2 12 12 19 33 25 -1 38 -99 37 -79 0 -94 3 -113 21 -29 27 -50 86
-36 100 22 22 11 53 -27 71 -21 10 -40 21 -43 24 -3 4 -27 12 -55 19 -27 7
-57 20 -65 27 -12 13 -11 18 6 42 31 41 62 54 113 47 24 -3 50 -8 57 -11z
m694 -933 c0 -5 -4 -10 -10 -10 -5 0 -10 5 -10 10 0 6 5 10 10 10 6 0 10 -4
10 -10z m-3245 -60 c3 -5 2 -10 -4 -10 -5 0 -13 5 -16 10 -3 6 -2 10 4 10 5 0
13 -4 16 -10z m8575 -277 c0 -8 13 -13 34 -13 27 0 44 -9 80 -45 51 -51 75
-94 67 -117 -3 -9 -40 -52 -81 -96 -115 -121 -171 -129 -218 -30 -12 24 -24
63 -28 87 -6 39 -5 44 9 38 14 -5 17 0 17 33 0 28 -4 40 -14 40 -12 0 -13 6
-5 30 11 30 34 40 41 18 3 -7 7 -5 11 6 4 10 3 15 -3 11 -13 -8 -13 28 0 41
15 14 90 12 90 -3z m-4685 -12 c-3 -6 -11 -8 -17 -5 -6 4 -5 9 3 15 16 10 23
4 14 -10z m53 -32 c2 -5 21 -12 43 -15 24 -4 53 -20 79 -43 35 -31 41 -43 42
-78 0 -23 -2 -46 -6 -51 -3 -6 -8 -43 -11 -84 -3 -40 -10 -94 -16 -119 -10
-46 -11 -47 -59 -51 -65 -6 -110 1 -110 18 0 8 -11 19 -25 24 -24 9 -36 40
-15 40 16 0 12 71 -4 84 -10 7 -15 31 -16 66 -2 86 -1 102 10 95 18 -11 10 59
-10 85 -24 30 -25 40 -5 40 8 0 15 -5 15 -11 0 -6 7 -3 16 6 17 17 66 13 72
-6z m2126 -123 c25 -16 28 -22 23 -58 -7 -54 -31 -78 -77 -78 -20 0 -64 -3
-98 -6 -53 -6 -67 -12 -110 -50 -58 -51 -92 -58 -92 -19 0 17 16 43 43 73 24
26 46 54 49 62 3 8 23 21 44 29 22 8 53 25 70 37 17 13 45 24 62 24 17 0 34 5
38 11 3 6 9 7 13 2 3 -5 19 -17 35 -27z m-6634 -104 c0 -12 71 -36 113 -38 58
-3 87 -13 87 -28 0 -18 22 -26 49 -19 13 3 21 1 21 -7 0 -7 8 -9 19 -5 12 4
39 -4 68 -19 26 -15 55 -26 63 -26 30 -1 98 -74 105 -114 7 -36 5 -41 -48 -94
-40 -42 -59 -70 -69 -107 -14 -47 -13 -52 8 -90 32 -56 44 -84 44 -102 0 -8 9
-27 19 -42 11 -15 27 -46 36 -69 9 -23 21 -40 26 -39 4 1 23 -14 41 -34 18
-19 57 -45 86 -58 48 -20 77 -27 152 -36 14 -1 38 -6 54 -10 23 -6 32 -4 43
10 7 11 13 13 13 7 0 -15 36 -16 45 -2 3 6 -2 10 -12 11 -11 0 -6 5 12 11 118
39 120 51 30 140 -62 62 -67 65 -110 70 -58 7 -69 11 -77 31 -9 22 -33 31 -55
22 -10 -4 -49 -6 -88 -5 -116 3 -185 44 -185 111 0 10 -6 28 -12 39 -9 14 -10
23 -3 28 6 4 18 23 28 43 10 20 39 53 64 74 34 29 42 40 31 47 -10 7 -10 8 2
7 8 -1 27 3 42 10 22 11 30 11 49 -3 33 -22 52 -21 44 4 -8 24 11 26 39 5 19
-14 16 -45 -4 -45 -5 0 -10 -7 -10 -15 0 -8 7 -15 15 -15 9 0 18 -7 21 -15 4
-8 10 -12 15 -9 5 3 9 1 9 -5 0 -5 11 -16 24 -23 12 -7 52 -34 87 -61 35 -26
75 -55 89 -65 42 -29 92 -81 86 -90 -3 -5 8 -23 24 -40 19 -21 31 -48 36 -77
4 -31 14 -52 33 -68 15 -12 27 -26 28 -31 1 -5 6 -12 12 -15 6 -4 12 -16 14
-26 15 -86 65 -184 98 -192 10 -3 19 -11 19 -19 0 -7 8 -19 19 -26 10 -7 21
-23 25 -35 4 -13 10 -22 14 -20 4 1 29 -22 56 -51 38 -41 47 -55 36 -62 -10
-6 -7 -14 17 -37 16 -15 33 -36 36 -45 4 -10 12 -18 19 -18 9 0 8 3 -2 10 -8
5 -12 10 -7 10 11 0 84 -47 88 -57 2 -5 33 -29 69 -55 62 -44 70 -46 165 -56
80 -9 103 -15 117 -32 9 -11 21 -20 27 -20 7 0 14 -8 18 -17 8 -23 44 -63 56
-63 11 0 46 -41 47 -56 0 -5 14 -29 31 -52 33 -45 37 -89 8 -84 -9 1 -19 -4
-23 -13 -3 -8 -16 -15 -29 -15 -13 0 -39 -5 -56 -11 -24 -9 -35 -9 -44 0 -6 6
-19 11 -28 11 -26 0 -50 82 -48 166 1 38 5 74 10 80 33 40 -105 50 -190 14
-66 -29 -85 -21 -89 38 -3 43 -29 71 -79 86 -18 6 -23 15 -23 42 0 28 -4 34
-21 34 -17 0 -19 -3 -10 -13 8 -11 6 -16 -12 -25 -25 -13 -37 -12 -91 11 -21
9 -45 17 -52 17 -8 0 -14 5 -14 10 0 6 -11 10 -25 10 -14 0 -25 5 -25 10 0 16
-76 12 -90 -5 -7 -8 -18 -15 -24 -15 -18 0 -79 -121 -67 -133 6 -6 11 -21 11
-34 0 -13 7 -26 15 -29 8 -3 17 -14 20 -25 4 -10 19 -26 34 -35 15 -9 38 -39
51 -66 l24 -50 -72 -70 c-49 -48 -77 -68 -88 -64 -16 6 -73 -21 -75 -36 -1 -4
-2 -13 -3 -18 -4 -32 -63 -39 -97 -11 -22 18 -23 21 -9 47 8 16 23 38 32 48
10 11 30 38 45 60 16 23 36 47 47 55 21 16 17 67 -8 106 -18 27 -92 66 -112
58 -34 -13 -98 26 -123 75 -10 19 -19 22 -56 20 -42 -3 -45 -5 -45 -30 0 -17
5 -28 14 -28 20 0 26 -24 19 -75 -5 -38 -10 -46 -32 -52 -14 -3 -50 -16 -79
-29 -60 -27 -51 -29 -192 53 -36 21 -69 38 -75 38 -5 1 -26 15 -45 33 -19 18
-75 62 -125 98 -102 75 -219 190 -204 200 6 3 9 15 6 25 -3 10 0 21 7 24 8 3
8 7 -1 11 -22 10 -14 32 15 46 16 9 26 20 24 31 -2 10 4 17 12 17 9 0 21 9 28
20 7 11 20 20 28 20 21 0 93 68 118 111 18 29 20 45 15 87 -5 46 -4 52 13 52
15 0 16 2 5 9 -9 6 -10 11 -2 15 16 10 14 46 -3 52 -8 3 -13 11 -10 18 3 7 -6
21 -20 30 -15 9 -26 24 -26 34 0 9 -26 44 -58 78 -31 33 -71 79 -89 103 -19
26 -34 38 -38 31 -8 -13 -85 61 -85 80 0 6 -5 8 -11 4 -9 -5 -10 6 -5 42 9 65
9 72 8 122 -2 50 -31 83 -99 113 -39 17 -60 49 -32 49 7 0 9 9 6 23 -4 12 -2
29 3 37 15 24 140 52 140 32z m7973 -190 c-5 -57 -23 -133 -35 -149 -11 -13
-116 -48 -123 -41 -3 3 4 26 15 52 21 50 28 105 10 76 -8 -13 -10 -13 -10 1 0
18 26 33 40 24 5 -3 26 17 46 44 45 60 63 58 57 -7z m-2365 16 c6 -7 8 -24 5
-38 -4 -21 -15 -28 -62 -42 -34 -10 -72 -15 -93 -12 l-35 6 9 38 c8 30 16 40
41 48 46 14 123 14 135 0z m1124 -505 c54 -59 111 -113 120 -113 11 0 58 -46
58 -58 0 -33 -87 -10 -152 40 -40 30 -53 35 -42 16 3 -7 -6 1 -20 17 -40 45
-68 103 -61 126 11 34 51 23 97 -28z m1714 -97 c11 -8 35 -16 54 -18 21 -2 45
-13 59 -28 15 -15 36 -24 55 -25 22 0 32 -5 34 -19 5 -26 -16 -36 -65 -29 -26
3 -43 2 -43 -4 0 -12 -121 -5 -157 8 -13 5 -23 16 -23 24 0 10 -5 13 -11 9 -7
-4 -10 -1 -7 7 3 8 12 14 20 14 24 0 48 25 48 51 0 28 8 30 36 10z m-2003
-128 c51 -36 58 -41 87 -70 16 -16 35 -28 44 -28 9 0 16 -4 16 -9 0 -5 18 -16
40 -25 31 -12 40 -21 40 -40 0 -49 -73 -68 -109 -29 -30 32 -90 66 -106 59 -8
-3 -17 -1 -20 4 -4 6 -18 10 -33 10 -54 0 -58 12 -27 84 15 36 30 66 32 66 3
0 19 -10 36 -22z m-3535 -34 c19 -23 32 -48 32 -65 0 -15 5 -31 11 -35 7 -4 9
-21 6 -40 -3 -19 -2 -34 1 -34 11 0 10 -44 0 -51 -5 -3 -6 -18 -3 -32 6 -23
11 -26 34 -21 18 4 22 3 13 -4 -11 -7 -10 -10 3 -16 29 -11 54 -7 64 12 5 9
22 17 38 18 15 0 33 2 38 3 26 8 55 -1 66 -20 8 -15 8 -19 0 -15 -6 4 -11 3
-11 -3 0 -5 9 -13 20 -16 11 -4 18 -10 15 -15 -8 -13 119 -207 159 -245 20
-19 58 -104 53 -118 -6 -17 -52 -28 -64 -16 -5 5 -20 10 -33 13 -14 2 -26 5
-27 7 -2 1 -7 2 -12 3 -5 0 -12 4 -16 8 -4 4 -13 4 -21 1 -8 -3 -14 0 -14 6 0
12 -120 5 -134 -9 -5 -5 -15 -6 -22 -3 -8 3 -14 1 -14 -3 0 -5 -11 -9 -25 -9
-18 0 -28 8 -36 28 -7 16 -19 36 -27 44 -15 14 -24 52 -38 150 -4 24 -17 54
-29 67 -13 14 -20 28 -16 31 3 4 -29 39 -72 78 -76 69 -79 75 -92 137 -16 72
-19 140 -7 155 12 17 52 36 62 30 6 -4 10 0 10 8 0 28 54 10 88 -29z m4086
-364 c37 0 86 -20 86 -36 0 -6 -13 -28 -30 -50 -16 -21 -32 -54 -36 -72 -3
-18 -10 -34 -14 -37 -12 -7 1 -98 16 -116 8 -8 14 -21 14 -27 0 -6 13 -19 29
-28 18 -11 27 -23 24 -32 -5 -12 -2 -12 15 -3 21 11 52 6 52 -10 0 -5 6 -9 14
-9 8 0 17 -5 19 -10 3 -6 4 -5 3 2 -3 13 29 48 44 48 6 0 10 4 10 10 0 6 24 8
60 5 54 -4 79 6 48 18 -8 3 -6 6 5 6 9 1 17 -3 17 -9 0 -5 10 -10 22 -10 22 0
58 -26 58 -41 0 -5 -19 -29 -43 -54 -39 -40 -49 -45 -108 -54 -35 -5 -77 -15
-94 -22 -35 -16 -125 -107 -126 -129 0 -11 -2 -12 -6 -2 -4 10 -12 7 -30 -10
-13 -13 -28 -21 -31 -18 -4 3 -8 -5 -10 -18 -2 -12 -8 -19 -14 -16 -6 4 -8 -1
-3 -16 6 -18 -1 -30 -35 -61 -50 -46 -71 -47 -86 -1 -6 18 -15 32 -20 30 -5
-2 -10 11 -12 28 -2 25 1 33 17 37 15 4 21 13 21 34 0 39 12 54 49 62 38 7 75
56 53 70 -8 4 -16 27 -19 51 -5 33 -2 45 11 52 9 5 16 21 15 36 0 28 -17 77
-18 54 -1 -7 -6 -10 -11 -7 -6 4 -8 16 -4 27 4 12 1 24 -7 28 -9 6 -10 12 -2
22 20 25 21 91 1 136 -16 38 -21 42 -40 35 -31 -10 -97 -6 -114 8 -8 6 -24 9
-36 6 -13 -4 -32 1 -47 12 -14 10 -35 20 -45 22 -11 2 -21 10 -24 17 -2 8 10
12 43 12 33 0 44 3 39 12 -5 8 -2 9 10 5 10 -4 19 -1 22 8 4 8 11 12 16 9 6
-4 18 -8 27 -9 9 -1 29 -7 45 -14 34 -14 97 -5 75 11 -10 7 -8 9 8 5 14 -3 24
1 29 12 4 11 8 12 11 4 3 -7 19 -13 37 -13z m-8048 -16 c13 -3 24 -10 24 -14
0 -4 11 -5 25 -2 18 3 25 0 25 -12 0 -9 7 -16 16 -16 9 0 30 -15 48 -33 20
-22 48 -38 81 -47 28 -7 59 -18 71 -25 11 -7 31 -15 45 -17 13 -1 24 -8 24
-15 0 -7 6 -18 14 -25 12 -11 13 -10 7 7 -6 19 -5 19 12 -2 17 -19 29 -21 118
-22 134 -2 135 -2 151 15 19 18 35 18 111 -5 79 -24 164 -16 188 17 18 26 34
28 34 5 1 -13 5 -10 16 10 8 15 20 25 25 21 6 -3 19 2 30 12 19 17 22 17 48 1
16 -9 31 -14 34 -10 4 3 27 -15 52 -40 25 -26 51 -47 59 -47 7 0 19 -6 25 -14
18 -21 -9 -36 -84 -47 -69 -10 -119 -29 -132 -53 -14 -24 -116 -128 -127 -130
-23 -4 -46 -23 -96 -83 -39 -48 -61 -65 -92 -73 -23 -7 -52 -25 -69 -44 -16
-19 -43 -37 -61 -41 -54 -12 -118 -14 -118 -4 0 5 -9 9 -20 9 -11 0 -20 5 -20
11 0 7 -9 9 -24 5 -13 -3 -26 -2 -28 3 -5 15 -174 34 -230 27 -34 -5 -54 -3
-68 7 -20 14 -18 16 32 55 65 50 88 77 88 101 0 10 10 26 23 35 15 12 18 18
10 22 -19 8 -16 29 8 50 22 19 22 19 11 -2 -7 -14 -7 -25 0 -35 8 -11 9 -11 4
4 -3 9 -1 17 4 17 14 0 13 37 -1 42 -14 5 -30 90 -19 102 8 8 -23 46 -39 46
-5 0 -14 -7 -21 -15 -9 -11 -16 -12 -25 -5 -20 16 -66 0 -92 -31 -13 -15 -32
-31 -43 -34 -21 -7 -80 20 -80 36 0 6 5 7 10 4 21 -13 9 13 -12 27 -13 9 -38
30 -55 49 -27 27 -33 41 -33 76 0 35 -3 41 -16 36 -17 -6 -17 -7 1 55 4 12 10
20 15 17 11 -7 60 16 60 28 0 5 7 6 16 3 9 -3 27 -9 40 -12z m3286 -264 c9 0
36 -18 60 -40 24 -22 46 -40 51 -40 4 0 12 -11 17 -25 9 -23 15 -25 66 -25 46
0 62 -5 87 -26 26 -22 37 -25 74 -19 47 7 87 -1 78 -16 -4 -5 -1 -9 5 -9 14 0
66 -36 113 -79 26 -24 37 -44 37 -63 0 -34 -30 -39 -51 -8 -17 25 -58 32 -175
31 -80 -1 -93 1 -110 20 -10 11 -47 36 -81 56 -35 19 -63 38 -63 42 0 8 -77
112 -93 126 -29 25 -67 78 -61 87 4 6 10 6 17 -1 6 -6 19 -11 29 -11z m4008
-26 c0 -13 -31 -35 -41 -28 -9 5 -6 11 6 21 20 14 35 17 35 7z m-3291 -26 c8
-13 16 -34 18 -48 6 -43 -8 -130 -20 -130 -7 0 -20 -14 -29 -30 -25 -43 -73
-42 -119 3 -19 19 -40 36 -46 38 -18 7 -27 49 -10 49 8 0 17 14 21 31 5 28 9
30 32 25 16 -4 23 -3 19 3 -3 7 0 8 9 5 9 -3 29 10 53 35 44 47 53 49 72 19z
m3341 2 c0 -5 -7 -10 -15 -10 -8 0 -15 5 -15 10 0 6 7 10 15 10 8 0 15 -4 15
-10z m-1111 -49 c12 -12 28 -57 41 -118 12 -54 24 -108 27 -120 4 -16 0 -25
-12 -29 -26 -10 -60 14 -79 57 -10 21 -32 53 -49 71 -18 17 -32 36 -33 42 -1
28 -17 82 -26 87 -5 3 -6 14 -2 23 6 16 15 17 61 12 32 -4 61 -14 72 -25z
m1788 -33 c-3 -7 -5 -2 -5 12 0 14 2 19 5 13 2 -7 2 -19 0 -25z m-5856 -51
c-13 -13 -15 1 -4 30 7 17 8 17 11 -1 2 -10 -1 -23 -7 -29z m4199 11 c0 -5 5
-6 10 -3 6 3 10 0 10 -7 0 -7 8 -18 19 -25 16 -10 36 -74 34 -113 -1 -34 -16
-58 -39 -63 -40 -7 -53 12 -64 93 -5 41 -13 92 -16 113 l-7 38 27 -12 c14 -7
26 -16 26 -21z m4300 -298 c0 -5 -7 -10 -15 -10 -8 0 -15 5 -15 10 0 6 7 10
15 10 8 0 15 -4 15 -10z m-10610 -29 c0 -5 26 -8 58 -6 193 13 231 14 234 6 4
-12 113 -15 147 -5 17 5 22 4 17 -4 -5 -8 0 -12 14 -12 11 0 23 -6 26 -13 6
-16 40 -15 56 1 16 16 34 15 52 -4 9 -8 33 -18 53 -21 61 -10 202 -158 176
-184 -6 -6 -22 6 -43 32 l-33 42 -20 -24 c-19 -24 -19 -24 1 -27 14 -2 18 -9
15 -22 -7 -26 -30 -33 -43 -12 -9 16 -11 16 -24 -1 -13 -16 -14 -16 -27 3 -8
12 -22 22 -31 24 -10 1 -24 11 -32 21 -12 17 -18 18 -54 7 -33 -10 -39 -16
-35 -32 4 -17 2 -19 -13 -13 -16 6 -17 4 -6 -9 16 -20 5 -81 -14 -74 -8 3 -14
-1 -14 -9 0 -8 12 -17 28 -21 15 -3 31 -7 37 -8 18 -5 -67 -76 -91 -76 -13 0
-32 -4 -42 -9 -9 -5 -25 -12 -36 -15 -11 -4 -16 -12 -12 -22 4 -10 1 -14 -6
-12 -7 3 -25 -13 -41 -35 -19 -26 -33 -37 -44 -33 -9 4 -24 -1 -34 -10 -23
-21 -54 -20 -104 2 -22 10 -44 18 -50 18 -5 1 -10 5 -10 10 0 4 -17 17 -37 27
-20 10 -45 31 -55 45 -40 59 -64 74 -114 74 -26 0 -60 -5 -75 -10 -19 -8 -30
-8 -38 0 -12 12 -53 14 -60 2 -2 -4 -35 -9 -73 -10 l-68 -3 -41 43 c-24 25
-44 57 -48 76 -3 17 -9 44 -12 60 -5 23 1 34 36 66 25 23 39 44 36 53 -3 8 -2
12 3 9 5 -3 11 1 15 9 4 11 11 13 30 5 25 -9 37 -2 49 31 3 9 17 19 31 21 14
3 23 1 20 -3 -3 -5 9 -9 25 -9 20 0 31 -5 31 -14 0 -8 5 -16 12 -18 7 -3 13
-15 13 -29 1 -13 6 -33 12 -44 6 -11 8 -26 6 -33 -3 -9 8 -12 41 -10 27 1 46
6 46 13 0 6 6 17 13 24 6 6 13 16 13 22 1 5 2 14 3 19 0 6 8 10 16 10 8 0 15
5 15 11 0 5 -4 7 -10 4 -5 -3 -10 -2 -10 4 0 5 8 12 18 15 9 4 27 22 40 41 12
19 28 35 35 36 6 0 3 4 -8 9 -18 8 -17 9 8 9 15 1 27 -3 27 -8z m8400 -542
c107 -45 105 -43 105 -75 0 -29 -4 -33 -88 -68 -48 -20 -111 -21 -127 -1 -16
20 -30 94 -19 101 5 3 9 15 9 28 0 23 17 46 35 46 5 0 44 -14 85 -31z m-4933
-111 c8 -13 24 -65 44 -143 6 -22 8 -59 4 -83 -6 -38 -9 -42 -28 -37 -135 36
-157 44 -157 61 0 28 40 113 77 162 40 55 47 59 60 40z m5057 -109 c14 -11 26
-27 26 -35 0 -24 -81 -114 -103 -114 -27 0 -87 63 -87 92 0 35 33 61 75 60 21
-1 33 3 30 8 -11 18 32 10 59 -11z m-5086 -242 c7 -6 12 -22 10 -36 -3 -23 -7
-26 -43 -26 -32 0 -42 5 -54 27 -13 22 -13 29 -1 42 14 18 62 14 88 -7z m7397
-297 c10 -11 16 -20 13 -20 -3 0 -13 9 -23 20 -10 11 -16 20 -13 20 3 0 13 -9
23 -20z"/>
<path d="M5300 9210 c0 -5 5 -10 10 -10 6 0 10 5 10 10 0 6 -4 10 -10 10 -5 0
-10 -4 -10 -10z"/>
<path d="M1921 7984 c0 -11 3 -14 6 -6 3 7 2 16 -1 19 -3 4 -6 -2 -5 -13z"/>
<path d="M4692 7240 c0 -19 2 -27 5 -17 2 9 2 25 0 35 -3 9 -5 1 -5 -18z"/>
<path d="M8875 6830 c3 -5 11 -10 16 -10 6 0 7 5 4 10 -3 6 -11 10 -16 10 -6
0 -7 -4 -4 -10z"/>
<path d="M9195 6511 c-7 -12 33 -41 55 -41 19 0 40 19 40 37 0 15 -85 19 -95
4z"/>
<path d="M1503 6673 c9 -2 25 -2 35 0 9 3 1 5 -18 5 -19 0 -27 -2 -17 -5z"/>
<path d="M7270 6310 c0 -11 5 -20 10 -20 6 0 10 9 10 20 0 11 -4 20 -10 20 -5
0 -10 -9 -10 -20z"/>
<path d="M1392 6077 c-25 -26 -29 -47 -9 -47 19 0 60 47 52 59 -9 16 -19 13
-43 -12z"/>
<path d="M1510 6014 c0 -10 33 -33 47 -34 7 0 10 7 7 15 -4 8 -10 13 -14 10
-5 -3 -11 -1 -15 5 -7 11 -25 14 -25 4z"/>
<path d="M1320 5965 c0 -19 -20 -56 -39 -71 -19 -15 -1 -24 27 -13 14 5 20 14
16 20 -3 6 -2 14 3 18 6 3 13 18 17 34 5 20 3 27 -9 27 -8 0 -15 -7 -15 -15z"/>
<path d="M1580 5960 c0 -5 9 -14 20 -20 22 -12 27 -1 8 18 -14 14 -28 16 -28
2z"/>
<path d="M1240 5855 c-17 -20 -9 -69 13 -73 14 -3 17 4 17 37 0 44 -11 58 -30
36z"/>
<path d="M1350 5859 c0 -5 5 -7 10 -4 6 3 10 8 10 11 0 2 -4 4 -10 4 -5 0 -10
-5 -10 -11z"/>
<path d="M1340 5776 c0 -9 7 -12 20 -9 11 3 20 9 20 14 0 5 -9 9 -20 9 -11 0
-20 -6 -20 -14z"/>
<path d="M1225 5729 c-11 -17 1 -21 15 -4 8 9 8 15 2 15 -6 0 -14 -5 -17 -11z"/>
<path d="M1166 5678 c-20 -29 -20 -48 0 -48 11 0 15 6 11 19 -3 12 1 22 9 25
8 3 14 10 14 16 0 17 -18 11 -34 -12z"/>
<path d="M7090 10675 c0 -14 5 -25 10 -25 6 0 10 11 10 25 0 14 -4 25 -10 25
-5 0 -10 -11 -10 -25z"/>
<path d="M9585 10428 c-16 -6 -33 -15 -36 -20 -3 -5 -57 -9 -121 -11 l-115 -2
-38 -34 c-39 -34 -91 -111 -125 -187 -17 -36 -23 -41 -45 -36 -29 5 -68 49
-61 69 4 9 -4 13 -24 13 -19 0 -29 -5 -28 -12 2 -8 -6 -12 -20 -11 -25 3 -70
-36 -54 -46 6 -4 7 -24 1 -56 -14 -90 -11 -139 15 -187 32 -60 25 -88 -43
-173 -50 -62 -117 -149 -203 -264 -15 -20 -27 -42 -28 -48 0 -7 -4 -13 -9 -13
-5 0 -14 -13 -21 -29 -6 -16 -20 -37 -31 -47 -10 -9 -19 -24 -19 -33 0 -9 -9
-22 -20 -29 -11 -7 -20 -18 -20 -26 0 -7 -7 -19 -15 -26 -8 -7 -15 -21 -15
-32 0 -10 -4 -17 -9 -13 -14 8 -29 -25 -34 -70 -3 -21 -12 -42 -21 -47 -9 -5
-16 -15 -16 -23 0 -8 -9 -19 -19 -25 -11 -5 -23 -20 -26 -32 -7 -22 -73 -138
-84 -148 -3 -3 -16 -26 -28 -52 -13 -27 -27 -48 -33 -48 -5 0 -10 -9 -10 -21
0 -11 -9 -28 -19 -37 -20 -18 -153 -261 -166 -303 -4 -13 -11 -28 -15 -34 -14
-18 -38 -125 -33 -145 4 -14 1 -20 -7 -18 -7 2 -15 -3 -17 -9 -8 -22 17 -14
42 13 14 15 25 23 25 18 0 -5 5 -2 10 6 5 8 7 25 3 38 -4 18 1 30 21 48 23 22
31 42 27 67 0 4 6 7 15 7 10 0 14 6 10 15 -3 9 0 15 9 15 13 0 27 28 30 62 1
9 10 29 20 45 11 15 18 31 17 36 -1 4 3 7 9 7 7 0 9 10 5 25 -4 16 1 42 14 69
19 43 47 76 33 40 -4 -12 -3 -15 5 -10 7 4 12 16 12 27 0 11 18 47 40 79 22
32 40 63 40 68 0 5 8 12 18 14 9 3 37 45 62 94 49 98 60 112 76 107 6 -2 17
15 24 37 7 23 19 44 26 48 12 7 14 10 14 35 0 6 15 28 33 47 42 46 58 76 51
93 -3 8 6 23 20 34 14 11 23 22 21 25 -3 3 15 27 39 54 25 27 51 60 58 74 16
30 48 59 67 60 17 0 97 -90 93 -106 -1 -7 12 -22 30 -35 18 -12 38 -28 43 -34
10 -12 133 -79 147 -80 3 0 9 -3 13 -7 4 -4 14 -4 22 -1 9 4 16 -2 20 -16 3
-11 9 -19 13 -16 5 3 11 1 15 -5 3 -5 17 -10 31 -10 47 0 95 -38 87 -69 -3
-11 -1 -21 5 -21 6 0 8 -9 5 -20 -3 -11 2 -31 11 -44 10 -15 12 -27 6 -31 -6
-3 -10 -1 -10 6 0 7 -3 9 -6 6 -9 -9 38 -56 51 -51 6 3 46 -25 88 -61 94 -80
114 -89 153 -68 16 9 40 22 54 29 16 8 40 11 64 7 33 -5 41 -13 68 -59 16 -30
33 -54 37 -54 4 0 21 -14 39 -31 22 -22 37 -29 52 -24 14 4 20 2 20 -8 0 -7 6
-14 13 -15 22 -2 71 -10 127 -20 87 -16 140 -21 140 -12 0 4 21 6 48 4 26 -2
41 -1 35 2 -7 3 -13 11 -13 18 0 24 -38 49 -64 42 -14 -3 -28 -2 -31 4 -3 5
-12 10 -20 10 -17 0 -87 69 -80 80 3 5 -4 12 -15 15 -30 10 -20 27 18 31 22 3
38 -2 52 -16 11 -11 20 -17 20 -14 0 4 12 -2 27 -11 17 -12 66 -22 137 -30
113 -12 143 -7 132 22 -3 7 0 14 7 14 7 1 19 2 27 3 32 3 22 35 -17 52 -21 9
-45 20 -53 25 -8 5 -27 14 -42 20 -38 15 -35 24 16 45 24 10 43 22 40 25 -3 6
10 12 46 23 3 1 11 5 19 10 8 5 16 4 20 -3 5 -8 15 -5 31 9 14 12 26 16 30 10
7 -11 71 30 67 44 -2 5 22 32 52 59 96 84 101 89 101 100 0 7 -4 7 -12 -1 -7
-7 -16 -12 -22 -12 -5 0 5 14 22 31 18 17 32 35 32 40 0 5 9 18 21 30 15 15
19 27 14 50 -4 16 -2 35 4 42 5 7 8 22 6 32 -2 11 -4 23 -4 28 -2 13 -37 7
-57 -10 -141 -128 -156 -137 -296 -173 -81 -21 -90 6 -24 75 31 32 43 51 39
65 -4 14 2 23 22 32 21 9 25 17 20 36 -4 15 -2 21 5 17 6 -4 11 16 12 57 4
112 2 124 -28 163 -16 21 -28 40 -27 42 4 5 -32 63 -40 63 -4 0 -20 9 -35 19
-34 24 -124 45 -161 38 -38 -8 -118 49 -108 76 2 7 -5 17 -17 24 -12 7 -15 12
-8 13 6 0 12 5 12 11 0 6 -7 8 -16 5 -13 -5 -15 -2 -11 13 6 25 -9 46 -49 69
-18 9 -52 30 -75 47 -37 25 -53 29 -98 27 -30 -1 -58 -7 -62 -14 -4 -6 -16
-12 -26 -13 -10 0 -30 -9 -43 -18 -14 -10 -42 -22 -63 -28 -32 -8 -45 -7 -75
9 -20 10 -49 22 -64 26 -37 9 -35 22 7 62 38 35 55 70 61 122 4 27 1 32 -15
32 -15 0 -19 -5 -14 -16 4 -12 2 -15 -8 -12 -8 3 -13 11 -11 17 1 6 -8 11 -20
11 -13 0 -32 2 -43 5 -11 2 -33 -1 -50 -7z m-658 -440 c-2 -13 -4 -5 -4 17 -1
22 1 32 4 23 2 -10 2 -28 0 -40z"/>
<path d="M6665 10280 c-3 -6 1 -13 10 -16 21 -9 26 -2 10 13 -9 8 -16 9 -20 3z"/>
<path d="M6263 10263 c9 -2 23 -2 30 0 6 3 -1 5 -18 5 -16 0 -22 -2 -12 -5z"/>
<path d="M2980 10246 c0 -9 5 -16 10 -16 6 0 10 4 10 9 0 6 -4 13 -10 16 -5 3
-10 -1 -10 -9z"/>
<path d="M5000 9896 c0 -2 7 -6 15 -10 8 -3 15 -1 15 4 0 6 -7 10 -15 10 -8 0
-15 -2 -15 -4z"/>
<path d="M6106 9891 c-4 -7 -5 -15 -2 -18 9 -9 19 4 14 18 -4 11 -6 11 -12 0z"/>
<path d="M1770 9805 c0 -8 2 -15 4 -15 2 0 6 7 10 15 3 8 1 15 -4 15 -6 0 -10
-7 -10 -15z"/>
<path d="M10473 8496 c-50 -24 -15 -43 44 -23 25 9 39 37 18 37 -7 0 -16 -8
-18 -17 -4 -17 -5 -17 -6 0 -1 19 -6 19 -38 3z"/>
<path d="M3248 8413 c6 -2 18 -2 25 0 6 3 1 5 -13 5 -14 0 -19 -2 -12 -5z"/>
<path d="M360 8350 c0 -11 2 -20 4 -20 2 0 6 9 9 20 3 11 1 20 -4 20 -5 0 -9
-9 -9 -20z"/>
<path d="M5971 8354 c0 -11 3 -14 6 -6 3 7 2 16 -1 19 -3 4 -6 -2 -5 -13z"/>
<path d="M8041 8124 c0 -11 3 -14 6 -6 3 7 2 16 -1 19 -3 4 -6 -2 -5 -13z"/>
<path d="M8747 8033 c-4 -3 -7 -11 -7 -17 0 -6 5 -5 12 2 6 6 9 14 7 17 -3 3
-9 2 -12 -2z"/>
<path d="M10290 7825 c0 -38 6 -42 35 -21 19 14 19 15 1 35 -27 30 -36 26 -36
-14z"/>
<path d="M7470 7730 c0 -5 5 -10 10 -10 6 0 10 5 10 10 0 6 -4 10 -10 10 -5 0
-10 -4 -10 -10z"/>
<path d="M7447 7433 c-4 -3 -7 -11 -7 -17 0 -6 5 -5 12 2 6 6 9 14 7 17 -3 3
-9 2 -12 -2z"/>
<path d="M7126 7320 c-15 -5 -16 -9 -7 -14 7 -5 18 -3 24 3 14 14 6 20 -17 11z"/>
<path d="M120 6430 c0 -5 10 -10 23 -10 18 0 19 2 7 10 -19 13 -30 13 -30 0z"/>
<path d="M11330 6240 c0 -5 5 -10 10 -10 6 0 10 5 10 10 0 6 -4 10 -10 10 -5
0 -10 -4 -10 -10z"/>
<path d="M12051 5874 c0 -11 3 -14 6 -6 3 7 2 16 -1 19 -3 4 -6 -2 -5 -13z"/>
<path d="M12375 3980 c-3 -5 -1 -10 4 -10 6 0 11 5 11 10 0 6 -2 10 -4 10 -3
0 -8 -4 -11 -10z"/>
<path d="M12490 3940 c0 -5 5 -10 11 -10 5 0 7 5 4 10 -3 6 -8 10 -11 10 -2 0
-4 -4 -4 -10z"/>
<path d="M12765 3859 c-4 -6 -5 -13 -2 -16 7 -7 27 6 27 18 0 12 -17 12 -25
-2z"/>
<path d="M1315 3450 c-23 -11 -32 -19 -22 -20 18 0 77 27 77 35 0 9 -14 5 -55
-15z"/>
<path d="M4581 1404 c0 -11 3 -14 6 -6 3 7 2 16 -1 19 -3 4 -6 -2 -5 -13z"/>
<path d="M5338 693 c7 -3 16 -2 19 1 4 3 -2 6 -13 5 -11 0 -14 -3 -6 -6z"/>
</g>
</svg>
