<?xml version="1.0" encoding="UTF-8" standalone="no"?>
<svg
   xmlns:dc="http://purl.org/dc/elements/1.1/"
   xmlns:cc="http://creativecommons.org/ns#"
   xmlns:rdf="http://www.w3.org/1999/02/22-rdf-syntax-ns#"
   xmlns:svg="http://www.w3.org/2000/svg"
   xmlns="http://www.w3.org/2000/svg"
   xmlns:sodipodi="http://sodipodi.sourceforge.net/DTD/sodipodi-0.dtd"
   xmlns:inkscape="http://www.inkscape.org/namespaces/inkscape"
   inkscape:version="1.0 (4035a4f, 2020-05-01)"
   sodipodi:docname="StandHiyoko.ai.svg"
   viewBox="0 0 60.472401 60.472401"
   height="60.472401"
   width="60.472401"
   xml:space="preserve"
   id="svg1319"
   version="1.1"><metadata
     id="metadata1325"><rdf:RDF><cc:Work
         rdf:about=""><dc:format>image/svg+xml</dc:format><dc:type
           rdf:resource="http://purl.org/dc/dcmitype/StillImage" /><dc:title></dc:title></cc:Work></rdf:RDF></metadata><defs
     id="defs1323"><clipPath
       id="clipPath1335"
       clipPathUnits="userSpaceOnUse"><path
         id="path1333"
         d="M 0,45.354 H 45.354 V 0 H 0 Z" /></clipPath><clipPath
       id="clipPath1343"
       clipPathUnits="userSpaceOnUse"><path
         id="path1341"
         d="m 11.3339,35.4304 h 22.68 V 8.50037 h -22.68 z" /></clipPath></defs><sodipodi:namedview
     inkscape:current-layer="g1327"
     inkscape:window-maximized="0"
     inkscape:window-y="25"
     inkscape:window-x="0"
     inkscape:cy="30.2362"
     inkscape:cx="30.2362"
     inkscape:zoom="11.443237"
     showgrid="false"
     id="namedview1321"
     inkscape:window-height="875"
     inkscape:window-width="1440"
     inkscape:pageshadow="2"
     inkscape:pageopacity="0"
     guidetolerance="10"
     gridtolerance="10"
     objecttolerance="10"
     borderopacity="1"
     bordercolor="#666666"
     pagecolor="#ffffff" /><g
     transform="matrix(1.3333333,0,0,-1.3333333,0,60.4724)"
     inkscape:label="StandHiyoko"
     inkscape:groupmode="layer"
     id="g1327"><g
       id="g1329"><g
         clip-path="url(#clipPath1335)"
         id="g1331"><g
           id="g1337"><g
             id="g1339" /><g
             id="g1751"><g
               id="g1749"
               clip-path="url(#clipPath1343)"><path
                 id="path1345"
                 style="fill:#3d1006;fill-opacity:1;fill-rule:nonzero;stroke:none"
                 d="m 28.344,12.761 h -1.41 v 1.41 h 1.41 z" /><path
                 id="path1347"
                 style="fill:#3d1006;fill-opacity:1;fill-rule:nonzero;stroke:none"
                 d="m 18.424,11.341 h -1.42 v 1.42 h 1.42 z" /><path
                 id="path1349"
                 style="fill:#3d1006;fill-opacity:1;fill-rule:nonzero;stroke:none"
                 d="m 25.514,11.341 h -1.42 v 1.42 h 1.42 z" /><path
                 id="path1351"
                 style="fill:#3d1006;fill-opacity:1;fill-rule:nonzero;stroke:none"
                 d="m 26.934,8.501 h -1.42 v 1.42 h 1.42 z" /><path
                 id="path1353"
                 style="fill:#3d1006;fill-opacity:1;fill-rule:nonzero;stroke:none"
                 d="m 28.344,8.501 h -1.41 v 1.42 h 1.41 z" /><path
                 id="path1355"
                 style="fill:#3d1006;fill-opacity:1;fill-rule:nonzero;stroke:none"
                 d="m 25.514,8.501 h -1.42 v 1.42 h 1.42 z" /><path
                 id="path1357"
                 style="fill:#3d1006;fill-opacity:1;fill-rule:nonzero;stroke:none"
                 d="m 29.764,8.501 h -1.42 v 1.42 h 1.42 z" /><path
                 id="path1359"
                 style="fill:#3d1006;fill-opacity:1;fill-rule:nonzero;stroke:none"
                 d="m 18.424,8.501 h -1.42 v 1.42 h 1.42 z" /><path
                 id="path1361"
                 style="fill:#3d1006;fill-opacity:1;fill-rule:nonzero;stroke:none"
                 d="m 21.264,8.501 h -1.42 v 1.42 h 1.42 z" /><path
                 id="path1363"
                 style="fill:#3d1006;fill-opacity:1;fill-rule:nonzero;stroke:none"
                 d="m 22.674,8.501 h -1.41 v 1.42 h 1.41 z" /><path
                 id="path1365"
                 style="fill:#3d1006;fill-opacity:1;fill-rule:nonzero;stroke:none"
                 d="m 19.844,8.501 h -1.42 v 1.42 h 1.42 z" /><path
                 id="path1367"
                 style="fill:#f6bd43;fill-opacity:1;fill-rule:nonzero;stroke:none"
                 d="m 21.264,14.171 h -1.42 v 1.42 h 1.42 z" /><path
                 id="path1369"
                 style="fill:#f3ef80;fill-opacity:1;fill-rule:nonzero;stroke:none"
                 d="m 22.674,31.18 h -1.41 v 1.42 h 1.41 z" /><path
                 id="path1371"
                 style="fill:#f3ef80;fill-opacity:1;fill-rule:nonzero;stroke:none"
                 d="m 22.674,29.761 h -1.41 v 1.42 h 1.41 z" /><path
                 id="path1373"
                 style="fill:#f3ef80;fill-opacity:1;fill-rule:nonzero;stroke:none"
                 d="m 22.674,28.35 h -1.41 v 1.41 h 1.41 z" /><path
                 id="path1375"
                 style="fill:#f3ef80;fill-opacity:1;fill-rule:nonzero;stroke:none"
                 d="m 22.674,26.93 h -1.41 v 1.42 h 1.41 z" /><path
                 id="path1377"
                 style="fill:#f3ef80;fill-opacity:1;fill-rule:nonzero;stroke:none"
                 d="m 22.674,25.511 h -1.41 v 1.42 h 1.41 z" /><path
                 id="path1379"
                 style="fill:#f3ef80;fill-opacity:1;fill-rule:nonzero;stroke:none"
                 d="m 22.674,24.091 h -1.41 v 1.42 h 1.41 z" /><path
                 id="path1381"
                 style="fill:#f3ef80;fill-opacity:1;fill-rule:nonzero;stroke:none"
                 d="m 17.004,22.68 h -1.41 v 1.41 h 1.41 z" /><path
                 id="path1383"
                 style="fill:#f3ef80;fill-opacity:1;fill-rule:nonzero;stroke:none"
                 d="m 17.004,21.261 h -1.41 v 1.42 h 1.41 z" /><path
                 id="path1385"
                 style="fill:#f3ef80;fill-opacity:1;fill-rule:nonzero;stroke:none"
                 d="m 21.264,28.35 h -1.42 v 1.41 h 1.42 z" /><path
                 id="path1387"
                 style="fill:#f3ef80;fill-opacity:1;fill-rule:nonzero;stroke:none"
                 d="m 21.264,26.93 h -1.42 v 1.42 h 1.42 z" /><path
                 id="path1389"
                 style="fill:#f3ef80;fill-opacity:1;fill-rule:nonzero;stroke:none"
                 d="m 21.264,25.511 h -1.42 v 1.42 h 1.42 z" /><path
                 id="path1391"
                 style="fill:#f3ef80;fill-opacity:1;fill-rule:nonzero;stroke:none"
                 d="m 19.844,24.091 h -1.42 v 1.42 h 1.42 z" /><path
                 id="path1393"
                 style="fill:#f3ef80;fill-opacity:1;fill-rule:nonzero;stroke:none"
                 d="m 19.844,22.68 h -1.42 v 1.41 h 1.42 z" /><path
                 id="path1395"
                 style="fill:#f3ef80;fill-opacity:1;fill-rule:nonzero;stroke:none"
                 d="m 19.844,21.261 h -1.42 v 1.42 h 1.42 z" /><path
                 id="path1397"
                 style="fill:#f3ef80;fill-opacity:1;fill-rule:nonzero;stroke:none"
                 d="m 19.844,18.421 h -1.42 v 1.42 h 1.42 z" /><path
                 id="path1399"
                 style="fill:#f3ef80;fill-opacity:1;fill-rule:nonzero;stroke:none"
                 d="m 17.004,18.421 h -1.41 v 1.42 h 1.41 z" /><path
                 id="path1401"
                 style="fill:#f3ef80;fill-opacity:1;fill-rule:nonzero;stroke:none"
                 d="m 14.174,21.261 h -1.42 v 1.42 h 1.42 z" /><path
                 id="path1403"
                 style="fill:#f3ef80;fill-opacity:1;fill-rule:nonzero;stroke:none"
                 d="m 15.594,21.261 h -1.42 v 1.42 h 1.42 z" /><path
                 id="path1405"
                 style="fill:#f3ef80;fill-opacity:1;fill-rule:nonzero;stroke:none"
                 d="m 15.594,19.841 h -1.42 v 1.42 h 1.42 z" /><path
                 id="path1407"
                 style="fill:#f3ef80;fill-opacity:1;fill-rule:nonzero;stroke:none"
                 d="m 18.424,18.421 h -1.42 v 1.42 h 1.42 z" /><path
                 id="path1409"
                 style="fill:#f3ef80;fill-opacity:1;fill-rule:nonzero;stroke:none"
                 d="m 18.424,24.091 h -1.42 v 1.42 h 1.42 z" /><path
                 id="path1411"
                 style="fill:#f3ef80;fill-opacity:1;fill-rule:nonzero;stroke:none"
                 d="m 18.424,22.68 h -1.42 v 1.41 h 1.42 z" /><path
                 id="path1413"
                 style="fill:#f3ef80;fill-opacity:1;fill-rule:nonzero;stroke:none"
                 d="m 18.424,21.261 h -1.42 v 1.42 h 1.42 z" /><path
                 id="path1415"
                 style="fill:#f3ef80;fill-opacity:1;fill-rule:nonzero;stroke:none"
                 d="m 17.004,19.841 h -1.41 v 1.42 h 1.41 z" /><path
                 id="path1417"
                 style="fill:#f3ef80;fill-opacity:1;fill-rule:nonzero;stroke:none"
                 d="m 18.424,19.841 h -1.42 v 1.42 h 1.42 z" /><path
                 id="path1419"
                 style="fill:#f3ef80;fill-opacity:1;fill-rule:nonzero;stroke:none"
                 d="m 19.844,19.841 h -1.42 v 1.42 h 1.42 z" /><path
                 id="path1421"
                 style="fill:#f3ef80;fill-opacity:1;fill-rule:nonzero;stroke:none"
                 d="m 21.264,24.091 h -1.42 v 1.42 h 1.42 z" /><path
                 id="path1423"
                 style="fill:#f3ef80;fill-opacity:1;fill-rule:nonzero;stroke:none"
                 d="m 21.264,19.841 h -1.42 v 1.42 h 1.42 z" /><path
                 id="path1425"
                 style="fill:#f3ef80;fill-opacity:1;fill-rule:nonzero;stroke:none"
                 d="m 21.264,21.261 h -1.42 v 1.42 h 1.42 z" /><path
                 id="path1427"
                 style="fill:#f3ef80;fill-opacity:1;fill-rule:nonzero;stroke:none"
                 d="m 21.264,22.68 h -1.42 v 1.41 h 1.42 z" /><path
                 id="path1429"
                 style="fill:#f3ef80;fill-opacity:1;fill-rule:nonzero;stroke:none"
                 d="m 22.674,22.68 h -1.41 v 1.41 h 1.41 z" /><path
                 id="path1431"
                 style="fill:#f3ef80;fill-opacity:1;fill-rule:nonzero;stroke:none"
                 d="m 24.094,31.18 h -1.42 v 1.42 h 1.42 z" /><path
                 id="path1433"
                 style="fill:#f3ef80;fill-opacity:1;fill-rule:nonzero;stroke:none"
                 d="m 24.094,29.761 h -1.42 v 1.42 h 1.42 z" /><path
                 id="path1435"
                 style="fill:#f3ef80;fill-opacity:1;fill-rule:nonzero;stroke:none"
                 d="m 24.094,28.35 h -1.42 v 1.41 h 1.42 z" /><path
                 id="path1437"
                 style="fill:#f3ef80;fill-opacity:1;fill-rule:nonzero;stroke:none"
                 d="m 24.094,26.93 h -1.42 v 1.42 h 1.42 z" /><path
                 id="path1439"
                 style="fill:#f3ef80;fill-opacity:1;fill-rule:nonzero;stroke:none"
                 d="m 24.094,25.511 h -1.42 v 1.42 h 1.42 z" /><path
                 id="path1441"
                 style="fill:#f3ef80;fill-opacity:1;fill-rule:nonzero;stroke:none"
                 d="m 24.094,24.091 h -1.42 v 1.42 h 1.42 z" /><path
                 id="path1443"
                 style="fill:#f3ef80;fill-opacity:1;fill-rule:nonzero;stroke:none"
                 d="m 24.094,22.68 h -1.42 v 1.41 h 1.42 z" /><path
                 id="path1445"
                 style="fill:#f3ef80;fill-opacity:1;fill-rule:nonzero;stroke:none"
                 d="m 24.094,21.261 h -1.42 v 1.42 h 1.42 z" /><path
                 id="path1447"
                 style="fill:#f3ef80;fill-opacity:1;fill-rule:nonzero;stroke:none"
                 d="m 24.094,19.841 h -1.42 v 1.42 h 1.42 z" /><path
                 id="path1449"
                 style="fill:#f3ef80;fill-opacity:1;fill-rule:nonzero;stroke:none"
                 d="m 24.094,18.421 h -1.42 v 1.42 h 1.42 z" /><path
                 id="path1451"
                 style="fill:#f3ef80;fill-opacity:1;fill-rule:nonzero;stroke:none"
                 d="m 25.514,32.6 h -1.42 v 1.42 h 1.42 z" /><path
                 id="path1453"
                 style="fill:#f3ef80;fill-opacity:1;fill-rule:nonzero;stroke:none"
                 d="m 25.514,28.35 h -1.42 v 1.41 h 1.42 z" /><path
                 id="path1455"
                 style="fill:#f3ef80;fill-opacity:1;fill-rule:nonzero;stroke:none"
                 d="m 25.514,29.761 h -1.42 v 1.42 h 1.42 z" /><path
                 id="path1457"
                 style="fill:#f3ef80;fill-opacity:1;fill-rule:nonzero;stroke:none"
                 d="m 25.514,31.18 h -1.42 v 1.42 h 1.42 z" /><path
                 id="path1459"
                 style="fill:#f3ef80;fill-opacity:1;fill-rule:nonzero;stroke:none"
                 d="m 25.514,24.091 h -1.42 v 1.42 h 1.42 z" /><path
                 id="path1461"
                 style="fill:#f3ef80;fill-opacity:1;fill-rule:nonzero;stroke:none"
                 d="m 25.514,22.68 h -1.42 v 1.41 h 1.42 z" /><path
                 id="path1463"
                 style="fill:#f3ef80;fill-opacity:1;fill-rule:nonzero;stroke:none"
                 d="m 25.514,21.261 h -1.42 v 1.42 h 1.42 z" /><path
                 id="path1465"
                 style="fill:#f3ef80;fill-opacity:1;fill-rule:nonzero;stroke:none"
                 d="m 25.514,19.841 h -1.42 v 1.42 h 1.42 z" /><path
                 id="path1467"
                 style="fill:#f3ef80;fill-opacity:1;fill-rule:nonzero;stroke:none"
                 d="m 25.514,18.421 h -1.42 v 1.42 h 1.42 z" /><path
                 id="path1469"
                 style="fill:#f3ef80;fill-opacity:1;fill-rule:nonzero;stroke:none"
                 d="m 26.934,32.6 h -1.42 v 1.42 h 1.42 z" /><path
                 id="path1471"
                 style="fill:#f3ef80;fill-opacity:1;fill-rule:nonzero;stroke:none"
                 d="m 26.934,31.18 h -1.42 v 1.42 h 1.42 z" /><path
                 id="path1473"
                 style="fill:#f3ef80;fill-opacity:1;fill-rule:nonzero;stroke:none"
                 d="m 26.934,24.091 h -1.42 v 1.42 h 1.42 z" /><path
                 id="path1475"
                 style="fill:#f3ef80;fill-opacity:1;fill-rule:nonzero;stroke:none"
                 d="m 26.934,22.68 h -1.42 v 1.41 h 1.42 z" /><path
                 id="path1477"
                 style="fill:#f3ef80;fill-opacity:1;fill-rule:nonzero;stroke:none"
                 d="m 26.934,21.261 h -1.42 v 1.42 h 1.42 z" /><path
                 id="path1479"
                 style="fill:#f3ef80;fill-opacity:1;fill-rule:nonzero;stroke:none"
                 d="m 26.934,19.841 h -1.42 v 1.42 h 1.42 z" /><path
                 id="path1481"
                 style="fill:#f3ef80;fill-opacity:1;fill-rule:nonzero;stroke:none"
                 d="m 26.934,18.421 h -1.42 v 1.42 h 1.42 z" /><path
                 id="path1483"
                 style="fill:#f3ef80;fill-opacity:1;fill-rule:nonzero;stroke:none"
                 d="m 28.344,31.18 h -1.41 v 1.42 h 1.41 z" /><path
                 id="path1485"
                 style="fill:#f3ef80;fill-opacity:1;fill-rule:nonzero;stroke:none"
                 d="m 28.344,26.93 h -1.41 v 1.42 h 1.41 z" /><path
                 id="path1487"
                 style="fill:#f3ef80;fill-opacity:1;fill-rule:nonzero;stroke:none"
                 d="m 28.344,25.511 h -1.41 v 1.42 h 1.41 z" /><path
                 id="path1489"
                 style="fill:#f3ef80;fill-opacity:1;fill-rule:nonzero;stroke:none"
                 d="m 28.344,24.091 h -1.41 v 1.42 h 1.41 z" /><path
                 id="path1491"
                 style="fill:#f3ef80;fill-opacity:1;fill-rule:nonzero;stroke:none"
                 d="m 28.344,22.68 h -1.41 v 1.41 h 1.41 z" /><path
                 id="path1493"
                 style="fill:#f3ef80;fill-opacity:1;fill-rule:nonzero;stroke:none"
                 d="m 28.344,19.841 h -1.41 v 1.42 h 1.41 z" /><path
                 id="path1495"
                 style="fill:#f3ef80;fill-opacity:1;fill-rule:nonzero;stroke:none"
                 d="m 28.344,18.421 h -1.41 v 1.42 h 1.41 z" /><path
                 id="path1497"
                 style="fill:#f3ef80;fill-opacity:1;fill-rule:nonzero;stroke:none"
                 d="m 29.764,31.18 h -1.42 v 1.42 h 1.42 z" /><path
                 id="path1499"
                 style="fill:#f3ef80;fill-opacity:1;fill-rule:nonzero;stroke:none"
                 d="m 29.764,29.761 h -1.42 v 1.42 h 1.42 z" /><path
                 id="path1501"
                 style="fill:#f3ef80;fill-opacity:1;fill-rule:nonzero;stroke:none"
                 d="m 29.764,28.35 h -1.42 v 1.41 h 1.42 z" /><path
                 id="path1503"
                 style="fill:#f3ef80;fill-opacity:1;fill-rule:nonzero;stroke:none"
                 d="m 29.764,26.93 h -1.42 v 1.42 h 1.42 z" /><path
                 id="path1505"
                 style="fill:#f3ef80;fill-opacity:1;fill-rule:nonzero;stroke:none"
                 d="m 29.764,25.511 h -1.42 v 1.42 h 1.42 z" /><path
                 id="path1507"
                 style="fill:#f3ef80;fill-opacity:1;fill-rule:nonzero;stroke:none"
                 d="m 29.764,24.091 h -1.42 v 1.42 h 1.42 z" /><path
                 id="path1509"
                 style="fill:#f3ef80;fill-opacity:1;fill-rule:nonzero;stroke:none"
                 d="m 29.764,22.68 h -1.42 v 1.41 h 1.42 z" /><path
                 id="path1511"
                 style="fill:#f3ef80;fill-opacity:1;fill-rule:nonzero;stroke:none"
                 d="m 29.764,18.421 h -1.42 v 1.42 h 1.42 z" /><path
                 id="path1513"
                 style="fill:#f3ef80;fill-opacity:1;fill-rule:nonzero;stroke:none"
                 d="m 29.764,19.841 h -1.42 v 1.42 h 1.42 z" /><path
                 id="path1515"
                 style="fill:#f3ef80;fill-opacity:1;fill-rule:nonzero;stroke:none"
                 d="m 31.184,19.841 h -1.42 v 1.42 h 1.42 z" /><path
                 id="path1517"
                 style="fill:#f3ef80;fill-opacity:1;fill-rule:nonzero;stroke:none"
                 d="m 31.184,21.261 h -1.42 v 1.42 h 1.42 z" /><path
                 id="path1519"
                 style="fill:#f3ef80;fill-opacity:1;fill-rule:nonzero;stroke:none"
                 d="m 29.764,21.261 h -1.42 v 1.42 h 1.42 z" /><path
                 id="path1521"
                 style="fill:#f3ef80;fill-opacity:1;fill-rule:nonzero;stroke:none"
                 d="m 28.344,21.261 h -1.41 v 1.42 h 1.41 z" /><path
                 id="path1523"
                 style="fill:#f6bd43;fill-opacity:1;fill-rule:nonzero;stroke:none"
                 d="m 31.184,29.761 h -1.42 v 1.42 h 1.42 z" /><path
                 id="path1525"
                 style="fill:#f6bd43;fill-opacity:1;fill-rule:nonzero;stroke:none"
                 d="m 31.184,24.091 h -1.42 v 1.42 h 1.42 z" /><path
                 id="path1527"
                 style="fill:#f3ef80;fill-opacity:1;fill-rule:nonzero;stroke:none"
                 d="m 31.184,22.68 h -1.42 v 1.41 h 1.42 z" /><path
                 id="path1529"
                 style="fill:#f6bd43;fill-opacity:1;fill-rule:nonzero;stroke:none"
                 d="m 32.594,19.841 h -1.41 v 1.42 h 1.41 z" /><path
                 id="path1531"
                 style="fill:#f6bd43;fill-opacity:1;fill-rule:nonzero;stroke:none"
                 d="m 32.594,21.261 h -1.41 v 1.42 h 1.41 z" /><path
                 id="path1533"
                 style="fill:#d29626;fill-opacity:1;fill-rule:nonzero;stroke:none"
                 d="m 32.594,22.68 h -1.41 v 1.41 h 1.41 z" /><path
                 id="path1535"
                 style="fill:#d29626;fill-opacity:1;fill-rule:nonzero;stroke:none"
                 d="m 32.594,18.421 h -1.41 v 1.42 h 1.41 z" /><path
                 id="path1537"
                 style="fill:#3d1006;fill-opacity:1;fill-rule:nonzero;stroke:none"
                 d="m 34.014,18.421 h -1.42 v 1.42 h 1.42 z" /><path
                 id="path1539"
                 style="fill:#3d1006;fill-opacity:1;fill-rule:nonzero;stroke:none"
                 d="m 34.014,19.841 h -1.42 v 1.42 h 1.42 z" /><path
                 id="path1541"
                 style="fill:#3d1006;fill-opacity:1;fill-rule:nonzero;stroke:none"
                 d="m 34.014,21.261 h -1.42 v 1.42 h 1.42 z" /><path
                 id="path1543"
                 style="fill:#3d1006;fill-opacity:1;fill-rule:nonzero;stroke:none"
                 d="m 34.014,22.68 h -1.42 v 1.41 h 1.42 z" /><path
                 id="path1545"
                 style="fill:#3d1006;fill-opacity:1;fill-rule:nonzero;stroke:none"
                 d="m 34.014,29.761 h -1.42 v 1.42 h 1.42 z" /><path
                 id="path1547"
                 style="fill:#3d1006;fill-opacity:1;fill-rule:nonzero;stroke:none"
                 d="m 32.594,17.011 h -1.41 v 1.41 h 1.41 z" /><path
                 id="path1549"
                 style="fill:#3d1006;fill-opacity:1;fill-rule:nonzero;stroke:none"
                 d="m 32.594,24.091 h -1.41 v 1.42 h 1.41 z" /><path
                 id="path1551"
                 style="fill:#3d1006;fill-opacity:1;fill-rule:nonzero;stroke:none"
                 d="m 32.594,28.35 h -1.41 v 1.41 h 1.41 z" /><path
                 id="path1553"
                 style="fill:#eb5b2c;fill-opacity:1;fill-rule:nonzero;stroke:none"
                 d="m 32.594,29.761 h -1.41 v 1.42 h 1.41 z" /><path
                 id="path1555"
                 style="fill:#3d1006;fill-opacity:1;fill-rule:nonzero;stroke:none"
                 d="m 32.594,31.18 h -1.41 v 1.42 h 1.41 z" /><path
                 id="path1557"
                 style="fill:#3d1006;fill-opacity:1;fill-rule:nonzero;stroke:none"
                 d="m 31.184,15.591 h -1.42 v 1.42 h 1.42 z" /><path
                 id="path1559"
                 style="fill:#f6bd43;fill-opacity:1;fill-rule:nonzero;stroke:none"
                 d="m 31.184,17.011 h -1.42 v 1.41 h 1.42 z" /><path
                 id="path1561"
                 style="fill:#f6bd43;fill-opacity:1;fill-rule:nonzero;stroke:none"
                 d="m 31.184,18.421 h -1.42 v 1.42 h 1.42 z" /><path
                 id="path1563"
                 style="fill:#3d1006;fill-opacity:1;fill-rule:nonzero;stroke:none"
                 d="m 31.184,25.511 h -1.42 v 1.42 h 1.42 z" /><path
                 id="path1565"
                 style="fill:#3d1006;fill-opacity:1;fill-rule:nonzero;stroke:none"
                 d="m 31.184,26.93 h -1.42 v 1.42 h 1.42 z" /><path
                 id="path1567"
                 style="fill:#eb5b2c;fill-opacity:1;fill-rule:nonzero;stroke:none"
                 d="m 31.184,28.35 h -1.42 v 1.41 h 1.42 z" /><path
                 id="path1569"
                 style="fill:#eb5b2c;fill-opacity:1;fill-rule:nonzero;stroke:none"
                 d="m 31.184,31.18 h -1.42 v 1.42 h 1.42 z" /><path
                 id="path1571"
                 style="fill:#3d1006;fill-opacity:1;fill-rule:nonzero;stroke:none"
                 d="m 31.184,32.6 h -1.42 v 1.42 h 1.42 z" /><path
                 id="path1573"
                 style="fill:#3d1006;fill-opacity:1;fill-rule:nonzero;stroke:none"
                 d="m 29.764,9.921 h -1.42 v 1.42 h 1.42 z" /><path
                 id="path1575"
                 style="fill:#3d1006;fill-opacity:1;fill-rule:nonzero;stroke:none"
                 d="m 29.764,14.171 h -1.42 v 1.42 h 1.42 z" /><path
                 id="path1577"
                 style="fill:#d29626;fill-opacity:1;fill-rule:nonzero;stroke:none"
                 d="m 29.764,15.591 h -1.42 v 1.42 h 1.42 z" /><path
                 id="path1579"
                 style="fill:#f6bd43;fill-opacity:1;fill-rule:nonzero;stroke:none"
                 d="m 29.764,17.011 h -1.42 v 1.41 h 1.42 z" /><path
                 id="path1581"
                 style="fill:#3d1006;fill-opacity:1;fill-rule:nonzero;stroke:none"
                 d="m 29.764,32.6 h -1.42 v 1.42 h 1.42 z" /><path
                 id="path1583"
                 style="fill:#f6bd43;fill-opacity:1;fill-rule:nonzero;stroke:none"
                 d="m 28.344,9.921 h -1.41 v 1.42 h 1.41 z" /><path
                 id="path1585"
                 style="fill:#3d1006;fill-opacity:1;fill-rule:nonzero;stroke:none"
                 d="m 28.344,11.341 h -1.41 v 1.42 h 1.41 z" /><path
                 id="path1587"
                 style="fill:#3d1006;fill-opacity:1;fill-rule:nonzero;stroke:none"
                 d="m 28.344,14.171 h -1.41 v 1.42 h 1.41 z" /><path
                 id="path1589"
                 style="fill:#f6bd43;fill-opacity:1;fill-rule:nonzero;stroke:none"
                 d="m 28.344,15.591 h -1.41 v 1.42 h 1.41 z" /><path
                 id="path1591"
                 style="fill:#f6bd43;fill-opacity:1;fill-rule:nonzero;stroke:none"
                 d="m 28.344,17.011 h -1.41 v 1.41 h 1.41 z" /><path
                 id="path1593"
                 style="fill:#905e25;fill-opacity:1;fill-rule:nonzero;stroke:none"
                 d="m 28.344,28.35 h -1.41 v 1.41 h 1.41 z" /><path
                 id="path1595"
                 style="fill:#000000;fill-opacity:1;fill-rule:nonzero;stroke:none"
                 d="m 28.344,29.761 h -1.41 v 1.42 h 1.41 z" /><path
                 id="path1597"
                 style="fill:#d29626;fill-opacity:1;fill-rule:nonzero;stroke:none"
                 d="m 28.344,32.6 h -1.41 v 1.42 h 1.41 z" /><path
                 id="path1599"
                 style="fill:#3d1006;fill-opacity:1;fill-rule:nonzero;stroke:none"
                 d="m 28.344,34.02 h -1.41 v 1.41 h 1.41 z" /><path
                 id="path1601"
                 style="fill:#d29626;fill-opacity:1;fill-rule:nonzero;stroke:none"
                 d="m 26.934,9.921 h -1.42 v 1.42 h 1.42 z" /><path
                 id="path1603"
                 style="fill:#d29626;fill-opacity:1;fill-rule:nonzero;stroke:none"
                 d="m 26.934,11.341 h -1.42 v 1.42 h 1.42 z" /><path
                 id="path1605"
                 style="fill:#d29626;fill-opacity:1;fill-rule:nonzero;stroke:none"
                 d="m 26.934,12.761 h -1.42 v 1.41 h 1.42 z" /><path
                 id="path1607"
                 style="fill:#d29626;fill-opacity:1;fill-rule:nonzero;stroke:none"
                 d="m 26.934,14.171 h -1.42 v 1.42 h 1.42 z" /><path
                 id="path1609"
                 style="fill:#f6bd43;fill-opacity:1;fill-rule:nonzero;stroke:none"
                 d="m 26.934,15.591 h -1.42 v 1.42 h 1.42 z" /><path
                 id="path1611"
                 style="fill:#f6bd43;fill-opacity:1;fill-rule:nonzero;stroke:none"
                 d="m 26.934,17.011 h -1.42 v 1.41 h 1.42 z" /><path
                 id="path1613"
                 style="fill:#ee7d5a;fill-opacity:1;fill-rule:nonzero;stroke:none"
                 d="m 26.934,25.511 h -1.42 v 1.42 h 1.42 z" /><path
                 id="path1615"
                 style="fill:#ee7d5a;fill-opacity:1;fill-rule:nonzero;stroke:none"
                 d="m 26.934,26.93 h -1.42 v 1.42 h 1.42 z" /><path
                 id="path1617"
                 style="fill:#ffffff;fill-opacity:1;fill-rule:nonzero;stroke:none"
                 d="m 26.934,28.35 h -1.42 v 1.41 h 1.42 z" /><path
                 id="path1619"
                 style="fill:#ffffff;fill-opacity:1;fill-rule:nonzero;stroke:none"
                 d="m 26.934,29.761 h -1.42 v 1.42 h 1.42 z" /><path
                 id="path1621"
                 style="fill:#3d1006;fill-opacity:1;fill-rule:nonzero;stroke:none"
                 d="m 26.934,34.02 h -1.42 v 1.41 h 1.42 z" /><path
                 id="path1623"
                 style="fill:#3d1006;fill-opacity:1;fill-rule:nonzero;stroke:none"
                 d="m 25.514,9.921 h -1.42 v 1.42 h 1.42 z" /><path
                 id="path1625"
                 style="fill:#3d1006;fill-opacity:1;fill-rule:nonzero;stroke:none"
                 d="m 25.514,12.761 h -1.42 v 1.41 h 1.42 z" /><path
                 id="path1627"
                 style="fill:#f6bd43;fill-opacity:1;fill-rule:nonzero;stroke:none"
                 d="m 25.514,14.171 h -1.42 v 1.42 h 1.42 z" /><path
                 id="path1629"
                 style="fill:#f6bd43;fill-opacity:1;fill-rule:nonzero;stroke:none"
                 d="m 25.514,15.591 h -1.42 v 1.42 h 1.42 z" /><path
                 id="path1631"
                 style="fill:#f6bd43;fill-opacity:1;fill-rule:nonzero;stroke:none"
                 d="m 25.514,17.011 h -1.42 v 1.41 h 1.42 z" /><path
                 id="path1633"
                 style="fill:#ee7d5a;fill-opacity:1;fill-rule:nonzero;stroke:none"
                 d="m 25.514,25.511 h -1.42 v 1.42 h 1.42 z" /><path
                 id="path1635"
                 style="fill:#ee7d5a;fill-opacity:1;fill-rule:nonzero;stroke:none"
                 d="m 25.514,26.93 h -1.42 v 1.42 h 1.42 z" /><path
                 id="path1637"
                 style="fill:#3d1006;fill-opacity:1;fill-rule:nonzero;stroke:none"
                 d="m 25.514,34.02 h -1.42 v 1.41 h 1.42 z" /><path
                 id="path1639"
                 style="fill:#3d1006;fill-opacity:1;fill-rule:nonzero;stroke:none"
                 d="m 24.094,12.761 h -1.42 v 1.41 h 1.42 z" /><path
                 id="path1641"
                 style="fill:#f6bd43;fill-opacity:1;fill-rule:nonzero;stroke:none"
                 d="m 24.094,14.171 h -1.42 v 1.42 h 1.42 z" /><path
                 id="path1643"
                 style="fill:#f6bd43;fill-opacity:1;fill-rule:nonzero;stroke:none"
                 d="m 24.094,15.591 h -1.42 v 1.42 h 1.42 z" /><path
                 id="path1645"
                 style="fill:#f6bd43;fill-opacity:1;fill-rule:nonzero;stroke:none"
                 d="m 24.094,17.011 h -1.42 v 1.41 h 1.42 z" /><path
                 id="path1647"
                 style="fill:#d29626;fill-opacity:1;fill-rule:nonzero;stroke:none"
                 d="m 24.094,32.6 h -1.42 v 1.42 h 1.42 z" /><path
                 id="path1649"
                 style="fill:#3d1006;fill-opacity:1;fill-rule:nonzero;stroke:none"
                 d="m 24.094,34.02 h -1.42 v 1.41 h 1.42 z" /><path
                 id="path1651"
                 style="fill:#3d1006;fill-opacity:1;fill-rule:nonzero;stroke:none"
                 d="m 22.674,9.921 h -1.41 v 1.42 h 1.41 z" /><path
                 id="path1653"
                 style="fill:#3d1006;fill-opacity:1;fill-rule:nonzero;stroke:none"
                 d="m 22.674,12.761 h -1.41 v 1.41 h 1.41 z" /><path
                 id="path1655"
                 style="fill:#f6bd43;fill-opacity:1;fill-rule:nonzero;stroke:none"
                 d="m 22.674,14.171 h -1.41 v 1.42 h 1.41 z" /><path
                 id="path1657"
                 style="fill:#f6bd43;fill-opacity:1;fill-rule:nonzero;stroke:none"
                 d="m 22.674,15.591 h -1.41 v 1.42 h 1.41 z" /><path
                 id="path1659"
                 style="fill:#f6bd43;fill-opacity:1;fill-rule:nonzero;stroke:none"
                 d="m 22.674,17.011 h -1.41 v 1.41 h 1.41 z" /><path
                 id="path1661"
                 style="fill:#f6bd43;fill-opacity:1;fill-rule:nonzero;stroke:none"
                 d="m 22.674,18.421 h -1.41 v 1.42 h 1.41 z" /><path
                 id="path1663"
                 style="fill:#3d1006;fill-opacity:1;fill-rule:nonzero;stroke:none"
                 d="m 22.674,19.841 h -1.41 v 1.42 h 1.41 z" /><path
                 id="path1665"
                 style="fill:#3d1006;fill-opacity:1;fill-rule:nonzero;stroke:none"
                 d="m 22.674,21.261 h -1.41 v 1.42 h 1.41 z" /><path
                 id="path1667"
                 style="fill:#3d1006;fill-opacity:1;fill-rule:nonzero;stroke:none"
                 d="m 22.674,32.6 h -1.41 v 1.42 h 1.41 z" /><path
                 id="path1669"
                 style="fill:#f6bd43;fill-opacity:1;fill-rule:nonzero;stroke:none"
                 d="m 21.264,9.921 h -1.42 v 1.42 h 1.42 z" /><path
                 id="path1671"
                 style="fill:#3d1006;fill-opacity:1;fill-rule:nonzero;stroke:none"
                 d="m 21.264,11.341 h -1.42 v 1.42 h 1.42 z" /><path
                 id="path1673"
                 style="fill:#3d1006;fill-opacity:1;fill-rule:nonzero;stroke:none"
                 d="m 21.264,12.761 h -1.42 v 1.41 h 1.42 z" /><path
                 id="path1675"
                 style="fill:#f6bd43;fill-opacity:1;fill-rule:nonzero;stroke:none"
                 d="m 21.264,15.591 h -1.42 v 1.42 h 1.42 z" /><path
                 id="path1677"
                 style="fill:#f6bd43;fill-opacity:1;fill-rule:nonzero;stroke:none"
                 d="m 21.264,17.011 h -1.42 v 1.41 h 1.42 z" /><path
                 id="path1679"
                 style="fill:#3d1006;fill-opacity:1;fill-rule:nonzero;stroke:none"
                 d="m 21.264,18.421 h -1.42 v 1.42 h 1.42 z" /><path
                 id="path1681"
                 style="fill:#d29626;fill-opacity:1;fill-rule:nonzero;stroke:none"
                 d="m 21.264,29.761 h -1.42 v 1.42 h 1.42 z" /><path
                 id="path1683"
                 style="fill:#3d1006;fill-opacity:1;fill-rule:nonzero;stroke:none"
                 d="m 21.264,31.18 h -1.42 v 1.42 h 1.42 z" /><path
                 id="path1685"
                 style="fill:#d29626;fill-opacity:1;fill-rule:nonzero;stroke:none"
                 d="m 19.844,9.921 h -1.42 v 1.42 h 1.42 z" /><path
                 id="path1687"
                 style="fill:#d29626;fill-opacity:1;fill-rule:nonzero;stroke:none"
                 d="m 19.844,11.341 h -1.42 v 1.42 h 1.42 z" /><path
                 id="path1689"
                 style="fill:#d29626;fill-opacity:1;fill-rule:nonzero;stroke:none"
                 d="m 19.844,12.761 h -1.42 v 1.41 h 1.42 z" /><path
                 id="path1691"
                 style="fill:#d29626;fill-opacity:1;fill-rule:nonzero;stroke:none"
                 d="m 19.844,14.171 h -1.42 v 1.42 h 1.42 z" /><path
                 id="path1693"
                 style="fill:#f6bd43;fill-opacity:1;fill-rule:nonzero;stroke:none"
                 d="m 19.844,15.591 h -1.42 v 1.42 h 1.42 z" /><path
                 id="path1695"
                 style="fill:#3d1006;fill-opacity:1;fill-rule:nonzero;stroke:none"
                 d="m 19.844,17.011 h -1.42 v 1.41 h 1.42 z" /><path
                 id="path1697"
                 style="fill:#d29626;fill-opacity:1;fill-rule:nonzero;stroke:none"
                 d="m 19.844,25.511 h -1.42 v 1.42 h 1.42 z" /><path
                 id="path1699"
                 style="fill:#3d1006;fill-opacity:1;fill-rule:nonzero;stroke:none"
                 d="m 19.844,26.93 h -1.42 v 1.42 h 1.42 z" /><path
                 id="path1701"
                 style="fill:#3d1006;fill-opacity:1;fill-rule:nonzero;stroke:none"
                 d="m 19.844,28.35 h -1.42 v 1.41 h 1.42 z" /><path
                 id="path1703"
                 style="fill:#3d1006;fill-opacity:1;fill-rule:nonzero;stroke:none"
                 d="m 19.844,29.761 h -1.42 v 1.42 h 1.42 z" /><path
                 id="path1705"
                 style="fill:#3d1006;fill-opacity:1;fill-rule:nonzero;stroke:none"
                 d="m 18.424,9.921 h -1.42 v 1.42 h 1.42 z" /><path
                 id="path1707"
                 style="fill:#3d1006;fill-opacity:1;fill-rule:nonzero;stroke:none"
                 d="m 18.424,12.761 h -1.42 v 1.41 h 1.42 z" /><path
                 id="path1709"
                 style="fill:#3d1006;fill-opacity:1;fill-rule:nonzero;stroke:none"
                 d="m 18.424,14.171 h -1.42 v 1.42 h 1.42 z" /><path
                 id="path1711"
                 style="fill:#d29626;fill-opacity:1;fill-rule:nonzero;stroke:none"
                 d="m 18.424,15.591 h -1.42 v 1.42 h 1.42 z" /><path
                 id="path1713"
                 style="fill:#3d1006;fill-opacity:1;fill-rule:nonzero;stroke:none"
                 d="m 18.424,17.011 h -1.42 v 1.41 h 1.42 z" /><path
                 id="path1715"
                 style="fill:#3d1006;fill-opacity:1;fill-rule:nonzero;stroke:none"
                 d="m 18.424,25.511 h -1.42 v 1.42 h 1.42 z" /><path
                 id="path1717"
                 style="fill:#3d1006;fill-opacity:1;fill-rule:nonzero;stroke:none"
                 d="m 17.004,14.171 h -1.41 v 1.42 h 1.41 z" /><path
                 id="path1719"
                 style="fill:#d29626;fill-opacity:1;fill-rule:nonzero;stroke:none"
                 d="m 17.004,15.591 h -1.41 v 1.42 h 1.41 z" /><path
                 id="path1721"
                 style="fill:#3d1006;fill-opacity:1;fill-rule:nonzero;stroke:none"
                 d="m 17.004,17.011 h -1.41 v 1.41 h 1.41 z" /><path
                 id="path1723"
                 style="fill:#d29626;fill-opacity:1;fill-rule:nonzero;stroke:none"
                 d="m 17.004,24.091 h -1.41 v 1.42 h 1.41 z" /><path
                 id="path1725"
                 style="fill:#3d1006;fill-opacity:1;fill-rule:nonzero;stroke:none"
                 d="m 17.004,25.511 h -1.41 v 1.42 h 1.41 z" /><path
                 id="path1727"
                 style="fill:#3d1006;fill-opacity:1;fill-rule:nonzero;stroke:none"
                 d="m 15.594,15.591 h -1.42 v 1.42 h 1.42 z" /><path
                 id="path1729"
                 style="fill:#f6bd43;fill-opacity:1;fill-rule:nonzero;stroke:none"
                 d="m 15.594,17.011 h -1.42 v 1.41 h 1.42 z" /><path
                 id="path1731"
                 style="fill:#3d1006;fill-opacity:1;fill-rule:nonzero;stroke:none"
                 d="m 15.594,18.421 h -1.42 v 1.42 h 1.42 z" /><path
                 id="path1733"
                 style="fill:#d29626;fill-opacity:1;fill-rule:nonzero;stroke:none"
                 d="m 15.594,22.68 h -1.42 v 1.41 h 1.42 z" /><path
                 id="path1735"
                 style="fill:#3d1006;fill-opacity:1;fill-rule:nonzero;stroke:none"
                 d="m 15.594,24.091 h -1.42 v 1.42 h 1.42 z" /><path
                 id="path1737"
                 style="fill:#3d1006;fill-opacity:1;fill-rule:nonzero;stroke:none"
                 d="m 14.174,17.011 h -1.42 v 1.41 h 1.42 z" /><path
                 id="path1739"
                 style="fill:#3d1006;fill-opacity:1;fill-rule:nonzero;stroke:none"
                 d="m 14.174,18.421 h -1.42 v 1.42 h 1.42 z" /><path
                 id="path1741"
                 style="fill:#3d1006;fill-opacity:1;fill-rule:nonzero;stroke:none"
                 d="m 14.174,19.841 h -1.42 v 1.42 h 1.42 z" /><path
                 id="path1743"
                 style="fill:#3d1006;fill-opacity:1;fill-rule:nonzero;stroke:none"
                 d="m 14.174,22.68 h -1.42 v 1.41 h 1.42 z" /><path
                 id="path1745"
                 style="fill:#3d1006;fill-opacity:1;fill-rule:nonzero;stroke:none"
                 d="m 12.754,19.841 h -1.42 v 1.42 h 1.42 z" /><path
                 id="path1747"
                 style="fill:#3d1006;fill-opacity:1;fill-rule:nonzero;stroke:none"
                 d="m 12.754,21.261 h -1.42 v 1.42 h 1.42 z" /></g></g></g></g></g></g></svg>
