<?xml version="1.0" standalone="no"?>
<!DOCTYPE svg PUBLIC "-//W3C//DTD SVG 20010904//EN"
 "http://www.w3.org/TR/2001/REC-SVG-20010904/DTD/svg10.dtd">
<svg version="1.0" xmlns="http://www.w3.org/2000/svg"
 width="1280.000000pt" height="1280.000000pt" viewBox="0 0 1280.000000 1280.000000"
 preserveAspectRatio="xMidYMid meet">
<metadata>
Created by potrace 1.15, written by Peter Selinger 2001-2017
</metadata>
<g transform="translate(0.000000,1280.000000) scale(0.100000,-0.100000)"
fill="#000000" stroke="none">
<path d="M6637 12705 c-43 -47 -133 -133 -200 -192 -388 -341 -580 -550 -780
-850 -287 -429 -438 -873 -482 -1413 -17 -217 169 -538 402 -693 152 -101 346
-157 583 -170 l45 -2 -3 -200 c-2 -110 -7 -407 -12 -660 -6 -253 -10 -849 -10
-1325 0 -475 -4 -860 -8 -855 -5 6 -21 44 -37 85 -51 131 -237 490 -332 637
-303 472 -695 890 -1178 1255 -101 77 -388 274 -408 281 -6 2 8 30 30 63 132
194 213 434 213 635 0 194 -56 370 -171 540 -86 127 -132 166 -283 239 -423
205 -792 290 -1257 290 -403 0 -689 -49 -1203 -204 -241 -74 -310 -92 -383
-101 -29 -4 -56 -11 -59 -16 -6 -10 62 -131 244 -434 282 -468 520 -800 769
-1071 216 -236 471 -403 718 -471 91 -25 116 -27 280 -27 167 -1 188 1 290 28
61 15 144 42 185 58 41 17 96 37 122 44 70 21 188 105 300 212 l98 95 103 -68
c56 -37 170 -118 252 -180 776 -582 1317 -1291 1575 -2065 52 -154 101 -338
92 -344 -4 -2 -65 -7 -137 -10 -796 -42 -1473 -183 -1889 -392 -117 -59 -187
-106 -264 -178 -67 -63 -103 -116 -128 -188 -17 -50 -15 -68 31 -273 26 -120
433 -2077 740 -3565 46 -226 89 -430 95 -453 33 -123 271 -253 625 -341 974
-241 2569 -116 2955 231 90 81 53 -67 370 1473 38 184 110 533 160 775 50 242
124 602 165 800 110 537 243 1174 255 1224 7 29 7 60 0 98 -66 359 -810 654
-1920 763 -151 14 -411 30 -507 30 -46 0 -83 2 -83 5 0 18 103 284 157 405
236 529 580 1022 1090 1559 l99 105 65 -46 c124 -88 228 -131 394 -162 l120
-23 110 24 c598 129 1135 452 1569 943 142 161 252 310 443 599 85 129 178
258 205 287 28 29 48 58 46 65 -4 11 -33 22 -333 131 -515 185 -1047 333
-1305 363 -25 2 -61 7 -80 10 -19 3 -51 8 -70 11 -69 10 -327 12 -408 3 -398
-43 -728 -261 -923 -608 -23 -42 -57 -98 -74 -126 -68 -107 -103 -257 -112
-480 -12 -304 45 -564 168 -766 l49 -81 -97 -102 c-259 -268 -532 -628 -737
-969 -177 -295 -375 -716 -488 -1036 -17 -48 -35 -92 -41 -99 -6 -8 -27 -12
-56 -10 l-46 3 -6 95 c-4 52 -10 327 -14 610 -9 630 1 1060 55 2270 11 250 23
487 26 527 l6 72 36 6 c168 27 371 92 460 148 60 38 216 164 288 233 148 142
259 322 312 509 30 104 32 118 42 234 28 309 -60 677 -293 1226 -110 257 -509
1035 -532 1035 -5 -1 -45 -39 -88 -85z"/>
</g>
</svg>
