<?xml version="1.0" encoding="UTF-8" standalone="no"?>
<svg
   xmlns:dc="http://purl.org/dc/elements/1.1/"
   xmlns:cc="http://creativecommons.org/ns#"
   xmlns:rdf="http://www.w3.org/1999/02/22-rdf-syntax-ns#"
   xmlns:svg="http://www.w3.org/2000/svg"
   xmlns="http://www.w3.org/2000/svg"
   xmlns:sodipodi="http://sodipodi.sourceforge.net/DTD/sodipodi-0.dtd"
   xmlns:inkscape="http://www.inkscape.org/namespaces/inkscape"
   inkscape:version="1.0 (4035a4f, 2020-05-01)"
   sodipodi:docname="orionn.svg"
   xml:space="preserve"
   style="width: 256px; height: 256px; opacity: 1;"
   viewBox="0 0 512 512"
   y="0px"
   x="0px"
   id="_x32_"
   version="1.1"><metadata
   id="metadata1317"><rdf:RDF><cc:Work
       rdf:about=""><dc:format>image/svg+xml</dc:format><dc:type
         rdf:resource="http://purl.org/dc/dcmitype/StillImage" /></cc:Work></rdf:RDF></metadata><defs
   id="defs1315" /><sodipodi:namedview
   inkscape:current-layer="_x32_"
   inkscape:window-maximized="0"
   inkscape:window-y="0"
   inkscape:window-x="0"
   inkscape:cy="256"
   inkscape:cx="256"
   inkscape:zoom="1.3066406"
   showgrid="false"
   id="namedview1313"
   inkscape:window-height="900"
   inkscape:window-width="1440"
   inkscape:pageshadow="2"
   inkscape:pageopacity="0"
   guidetolerance="10"
   gridtolerance="10"
   objecttolerance="10"
   borderopacity="1"
   bordercolor="#666666"
   pagecolor="#ffffff" />
<style
   id="style1282"
   type="text/css">
	.st0{fill:#4B4B4B;}
</style>
<g
   style="fill:#ffff00"
   id="g1310">
	<path
   id="path1284"
   style="fill:#ffff00"
   d="M108.747,69.027c19.056,0,34.505-15.458,34.505-34.522C143.253,15.458,127.803,0,108.747,0   C89.683,0,74.234,15.458,74.234,34.505C74.234,53.569,89.683,69.027,108.747,69.027z"
   class="st0" />
	<path
   id="path1286"
   style="fill:#ffff00"
   d="M404.398,389.127c-19.056,0-34.505,15.466-34.505,34.522c0,19.064,15.449,34.505,34.505,34.505   c19.064,0,34.522-15.441,34.522-34.505C438.92,404.593,423.462,389.127,404.398,389.127z"
   class="st0" />
	<path
   id="path1288"
   style="fill:#ffff00"
   d="M104.832,448.488c-17.545,0-31.752,14.223-31.752,31.76c0,17.537,14.207,31.752,31.752,31.752   c17.529,0,31.752-14.215,31.752-31.752C136.584,462.711,122.361,448.488,104.832,448.488z"
   class="st0" />
	<path
   id="path1290"
   style="fill:#ffffff"
   d="M347.068,75.159L159.611,38.761c-0.317,3.737-0.99,7.384-2.071,10.852l187.464,36.398   C345.289,82.267,345.971,78.62,347.068,75.159z"
   class="st0" />
	<path
   id="path1292"
   style="fill:#ffffff"
   d="M150.977,465.911c1.08,3.469,1.722,7.108,1.99,10.86l202.573-38.274c-1.056-3.484-1.722-7.115-2.015-10.86   L150.977,465.911z"
   class="st0" />
	<path
   id="path1294"
   style="fill:#ffff00"
   d="M393.132,121.484c17.537,0,31.752-14.207,31.752-31.744c0-17.545-14.215-31.752-31.752-31.752   c-17.545,0-31.752,14.206-31.752,31.752C361.38,107.276,375.587,121.484,393.132,121.484z"
   class="st0" />
	<path
   id="path1296"
   style="fill:#ffff00"
   d="M225.763,253.12c0,14.776,11.965,26.732,26.724,26.732c14.76,0,26.724-11.956,26.724-26.732   c0-14.75-11.964-26.707-26.724-26.707C237.728,226.413,225.763,238.37,225.763,253.12z"
   class="st0" />
	<path
   id="path1298"
   style="fill:#ffff00"
   d="M293.41,231.042c0,14.752,11.964,26.724,26.723,26.724c14.76,0,26.724-11.972,26.724-26.724   c0-14.759-11.964-26.731-26.724-26.731C305.374,204.311,293.41,216.284,293.41,231.042z"
   class="st0" />
	<path
   id="path1300"
   style="fill:#ffff00"
   d="M207.43,265.556c0-14.766-11.972-26.723-26.731-26.723c-14.752,0-26.724,11.956-26.724,26.723   c0,14.76,11.972,26.716,26.724,26.716C195.457,292.272,207.43,280.316,207.43,265.556z"
   class="st0" />
	<path
   id="path1302"
   style="fill:#ffffff"
   d="M380.387,136.291c-3.598-0.99-7.051-2.33-10.267-4.077l-39.136,56.964c3.632,0.942,7.067,2.315,10.259,4.102   L380.387,136.291z"
   class="st0" />
	<path
   id="path1304"
   style="fill:#ffffff"
   d="M175.093,222.66L127.031,82.153c-3.404,1.316-6.977,2.258-10.682,2.81l48.063,140.516   C167.783,224.09,171.365,223.156,175.093,222.66z"
   class="st0" />
	<path
   id="path1306"
   style="fill:#ffffff"
   d="M124.425,436.125l48.736-127.981c-3.696-0.65-7.22-1.771-10.535-3.306l-48.744,127.973   C117.561,433.518,121.086,434.639,124.425,436.125z"
   class="st0" />
	<path
   id="path1308"
   style="fill:#ffffff"
   d="M392.06,374.133L340.139,269.39c-3.24,1.706-6.717,2.989-10.364,3.825l51.92,104.734   C384.976,376.318,388.445,375.042,392.06,374.133z"
   class="st0" />
</g>
</svg>
