<?xml version="1.0" encoding="UTF-8" standalone="no"?>
<svg
   xmlns:dc="http://purl.org/dc/elements/1.1/"
   xmlns:cc="http://creativecommons.org/ns#"
   xmlns:rdf="http://www.w3.org/1999/02/22-rdf-syntax-ns#"
   xmlns:svg="http://www.w3.org/2000/svg"
   xmlns="http://www.w3.org/2000/svg"
   xmlns:sodipodi="http://sodipodi.sourceforge.net/DTD/sodipodi-0.dtd"
   xmlns:inkscape="http://www.inkscape.org/namespaces/inkscape"
   sodipodi:docname="S.svg"
   inkscape:version="1.0 (4035a4f, 2020-05-01)"
   id="svg8"
   version="1.1"
   viewBox="0 0 210 297"
   height="297mm"
   width="210mm">
  <defs
     id="defs2" />
  <sodipodi:namedview
     inkscape:window-maximized="0"
     inkscape:window-y="23"
     inkscape:window-x="2"
     inkscape:window-height="855"
     inkscape:window-width="1440"
     inkscape:snap-global="true"
     inkscape:snap-bbox="false"
     showguides="false"
     inkscape:lockguides="false"
     showgrid="false"
     inkscape:document-rotation="0"
     inkscape:current-layer="layer1"
     inkscape:document-units="mm"
     inkscape:cy="441.20885"
     inkscape:cx="964.35637"
     inkscape:zoom="0.45911754"
     inkscape:pageshadow="2"
     inkscape:pageopacity="0.0"
     borderopacity="1.0"
     bordercolor="#666666"
     pagecolor="#ffffff"
     id="base" />
  <metadata
     id="metadata5">
    <rdf:RDF>
      <cc:Work
         rdf:about="">
        <dc:format>image/svg+xml</dc:format>
        <dc:type
           rdf:resource="http://purl.org/dc/dcmitype/StillImage" />
        <dc:title></dc:title>
      </cc:Work>
    </rdf:RDF>
  </metadata>
  <g
     id="layer1"
     inkscape:groupmode="layer"
     inkscape:label="レイヤー 1">
    <path
       sodipodi:nodetypes="cccccccccscccc"
       style="fill:#ff9955;stroke:none;stroke-width:0.0284372"
       id="path12"
       d="m 41.958115,151.84902 c -3.389467,1.64695 -5.417355,2.95893 -7.648025,4.96877 -1.940977,1.75862 -2.983889,3.23808 -3.708148,5.24792 -0.492488,1.39573 -0.434538,1.89818 0.898066,7.62064 0.75322,3.34974 12.543945,57.97831 21.437678,99.51502 1.332604,6.30867 2.578311,12.00321 2.752119,12.64525 0.956015,3.43347 7.85082,7.06236 18.106132,9.51882 28.216603,6.72739 74.423453,3.23807 85.605803,-6.44824 2.60728,-2.26106 1.5354,1.87026 10.71883,-41.11798 1.10084,-5.13626 3.18668,-14.87841 4.63516,-21.6337 1.44849,-6.75529 3.59226,-16.8045 4.78002,-22.33157 3.18668,-14.99006 7.03966,-32.77156 7.38731,-34.16728 0.20278,-0.80952 0.20278,-1.67487 0,-2.73562 C 114.91312,140.1155 118.15694,136.46566 41.958115,151.84902 Z" />
    <ellipse
       ry="10.239255"
       rx="72.571426"
       cy="172.01306"
       cx="107.34524"
       id="path26"
       style="fill:#803300;stroke-width:0.226393" />
    <circle
       r="0.099906191"
       cy="74.839287"
       cx="218.47023"
       style="fill:#803300;stroke:#000000;stroke-width:0.264583"
       id="path28" />
  </g>
</svg>
