<?xml version="1.0" standalone="no"?>
<!DOCTYPE svg PUBLIC "-//W3C//DTD SVG 20010904//EN"
 "http://www.w3.org/TR/2001/REC-SVG-20010904/DTD/svg10.dtd">
<svg version="1.0" xmlns="http://www.w3.org/2000/svg"
 width="640.000000pt" height="1280.000000pt" viewBox="0 0 640.000000 1280.000000"
 preserveAspectRatio="xMidYMid meet">
<metadata>
Created by potrace 1.15, written by Peter Selinger 2001-2017
</metadata>
<g transform="translate(0.000000,1280.000000) scale(0.100000,-0.100000)"
fill="#000000" stroke="none">
<path d="M3291 12783 c0 -7 -17 -151 -36 -320 -20 -170 -38 -334 -42 -365 l-6
-58 -52 0 c-29 0 -90 -7 -136 -16 -448 -85 -868 -496 -1200 -1173 l-74 -152
-40 7 c-22 3 -141 26 -264 50 -124 24 -226 42 -228 41 -1 -2 14 -9 35 -16 39
-14 408 -193 430 -208 9 -7 6 -24 -14 -74 -111 -271 -244 -737 -320 -1114 -14
-71 -26 -131 -27 -132 -6 -5 -254 -24 -402 -30 -121 -5 -158 -9 -130 -14 22
-4 128 -26 235 -49 107 -23 212 -44 233 -47 43 -6 42 -2 22 -126 -52 -326 -93
-843 -95 -1205 l-2 -182 -36 -16 c-86 -36 -318 -120 -460 -167 -84 -27 -151
-51 -150 -52 2 -1 39 2 83 6 74 8 514 39 548 39 11 0 15 -28 21 -152 17 -375
62 -678 142 -945 5 -19 3 -23 -17 -23 -45 0 -454 -30 -559 -40 -257 -26 -454
-65 -500 -99 l-25 -18 -3 -561 -2 -561 23 -16 c35 -22 108 -42 242 -65 65 -11
121 -22 123 -25 2 -2 10 -50 18 -107 12 -98 45 -350 100 -778 13 -107 33 -262
44 -345 11 -82 33 -258 50 -390 17 -132 39 -307 50 -390 11 -82 31 -239 45
-347 14 -109 36 -287 50 -395 14 -109 34 -265 45 -348 11 -82 33 -258 50 -390
17 -132 42 -325 55 -430 14 -104 36 -274 49 -377 13 -102 27 -192 31 -198 14
-23 270 -139 405 -184 319 -106 633 -164 1110 -208 219 -20 912 -17 1160 6
615 54 1127 164 1505 322 77 33 85 38 89 67 3 18 19 181 36 362 48 521 89 961
100 1073 25 253 31 320 50 527 11 121 25 266 30 323 6 56 14 148 20 205 5 56
19 201 30 322 11 121 25 265 30 320 6 55 23 246 40 425 17 179 34 370 40 425
5 55 19 197 30 314 11 118 22 215 23 216 1 1 43 9 92 19 50 9 110 27 135 39
l45 22 3 568 2 568 -43 19 c-110 49 -348 83 -802 115 -115 8 -217 15 -226 15
-14 0 -14 11 7 98 70 292 113 758 114 1210 0 67 2 122 5 122 3 0 110 13 238
30 127 16 293 34 367 40 123 11 179 20 119 20 -26 0 -730 117 -733 122 -2 2
-8 102 -15 223 -17 314 -52 646 -95 910 -9 49 -14 90 -12 92 1 2 90 11 196 21
l193 17 -204 33 c-112 18 -204 34 -205 35 0 1 -13 63 -28 137 -81 398 -200
810 -325 1117 l-49 122 41 34 c79 64 343 254 467 336 123 82 165 114 125 93
-17 -8 -232 -86 -565 -203 -47 -17 -102 -37 -122 -44 l-37 -14 -64 122 c-146
281 -293 485 -486 677 -189 189 -334 285 -529 350 l-87 29 -27 143 c-26 138
-69 418 -87 563 -5 39 -9 64 -10 58z"/>
</g>
</svg>
