<?xml version="1.0" encoding="UTF-8" standalone="no"?>
<svg
   xmlns:dc="http://purl.org/dc/elements/1.1/"
   xmlns:cc="http://creativecommons.org/ns#"
   xmlns:rdf="http://www.w3.org/1999/02/22-rdf-syntax-ns#"
   xmlns:svg="http://www.w3.org/2000/svg"
   xmlns="http://www.w3.org/2000/svg"
   xmlns:sodipodi="http://sodipodi.sourceforge.net/DTD/sodipodi-0.dtd"
   xmlns:inkscape="http://www.inkscape.org/namespaces/inkscape"
   sodipodi:docname="SSS.svg"
   inkscape:version="1.0 (4035a4f, 2020-05-01)"
   id="svg8"
   version="1.1"
   viewBox="0 0 210 297"
   height="297mm"
   width="210mm">
  <defs
     id="defs2" />
  <sodipodi:namedview
     inkscape:window-maximized="0"
     inkscape:window-y="23"
     inkscape:window-x="2"
     inkscape:window-height="855"
     inkscape:window-width="1440"
     inkscape:snap-global="true"
     inkscape:snap-bbox="false"
     showguides="false"
     inkscape:lockguides="false"
     showgrid="false"
     inkscape:document-rotation="0"
     inkscape:current-layer="layer1"
     inkscape:document-units="mm"
     inkscape:cy="441.20885"
     inkscape:cx="964.35637"
     inkscape:zoom="0.45911754"
     inkscape:pageshadow="2"
     inkscape:pageopacity="0.0"
     borderopacity="1.0"
     bordercolor="#666666"
     pagecolor="#ffffff"
     id="base" />
  <metadata
     id="metadata5">
    <rdf:RDF>
      <cc:Work
         rdf:about="">
        <dc:format>image/svg+xml</dc:format>
        <dc:type
           rdf:resource="http://purl.org/dc/dcmitype/StillImage" />
        <dc:title></dc:title>
      </cc:Work>
    </rdf:RDF>
  </metadata>
  <g
     id="layer1"
     inkscape:groupmode="layer"
     inkscape:label="レイヤー 1">
    <path
       style="fill:#00ff00;stroke:#000000;stroke-width:0.264583px;stroke-linecap:butt;stroke-linejoin:miter;stroke-opacity:1"
       d="m 197.70366,122.3087 c 0,0 -6.01056,-13.41015 -13.25398,-23.306934 -5.26535,-7.19412 -9.96235,-15.02476 -23.84796,-18.36955 -7.9927,-1.92529 -18.47506,0.29635 -22.45196,3.69966 -7.23348,6.1902 -12.09407,14.374 -11.42107,22.191754 0.38338,4.45342 4.69878,14.09185 9.71391,17.11098 9.16421,5.51689 19.67844,6.23643 30.8247,6.19595 10.34225,-0.0376 30.43636,-7.52186 30.43636,-7.52186 z"
       id="path54-27"
       sodipodi:nodetypes="cssssssc" />
    <path
       sodipodi:nodetypes="cccccccccscccc"
       style="fill:#ff6600;stroke:none;stroke-width:0.0284372"
       id="path12"
       d="m 41.958115,151.84902 c -3.389467,1.64695 -5.417355,2.95893 -7.648025,4.96877 -1.940977,1.75862 -2.983889,3.23808 -3.708148,5.24792 -0.492488,1.39573 -0.434538,1.89818 0.898066,7.62064 0.75322,3.34974 12.543945,57.97831 21.437678,99.51502 1.332604,6.30867 2.578311,12.00321 2.752119,12.64525 0.956015,3.43347 7.85082,7.06236 18.106132,9.51882 28.216603,6.72739 74.423453,3.23807 85.605803,-6.44824 2.60728,-2.26106 1.5354,1.87026 10.71883,-41.11798 1.10084,-5.13626 3.18668,-14.87841 4.63516,-21.6337 1.44849,-6.75529 3.59226,-16.8045 4.78002,-22.33157 3.18668,-14.99006 7.03966,-32.77156 7.38731,-34.16728 0.20278,-0.80952 0.20278,-1.67487 0,-2.73562 C 114.91312,140.1155 118.15694,136.46566 41.958115,151.84902 Z" />
    <ellipse
       ry="10.239255"
       rx="72.571426"
       cy="172.01306"
       cx="107.34524"
       id="path26"
       style="fill:#803300;stroke-width:0.226393" />
    <circle
       r="0.099906191"
       cy="74.839287"
       cx="218.47023"
       style="fill:#803300;stroke:#000000;stroke-width:0.264583"
       id="path28" />
    <path
       sodipodi:nodetypes="ccccc"
       id="path113"
       d="M 79.475358,99.652176 C 90.930619,121.85976 91.80658,137.53898 104.12628,168.6361 l 11.62359,-1.75288 -32.766964,-75.062857 z"
       style="fill:#008000;stroke:#000000;stroke-width:0.264583px;stroke-linecap:butt;stroke-linejoin:miter;stroke-opacity:1" />
    <path
       sodipodi:nodetypes="ccccc"
       id="path115"
       d="M 107.08816,69.521282 90.823854,122.43819 98.68701,131.32975 112.4889,73.121775 Z"
       style="fill:#008000;stroke:#000000;stroke-width:0.264583px;stroke-linecap:butt;stroke-linejoin:miter;stroke-opacity:1" />
    <path
       style="fill:#00ff00;stroke:#000000;stroke-width:0.264583px;stroke-linecap:butt;stroke-linejoin:miter;stroke-opacity:1"
       d="m 134.17355,2.6819322 c 0,0 -13.41015,6.010561 -23.30695,13.2539808 -7.19411,5.26535 -15.024751,9.96235 -18.369541,23.84796 -1.92529,7.9927 0.29635,18.47506 3.69966,22.45196 6.190201,7.23348 14.374001,12.09407 22.191761,11.42107 4.45342,-0.38338 14.09185,-4.69878 17.11097,-9.71391 5.51689,-9.16421 6.23644,-19.67844 6.19596,-30.824699 -0.0376,-10.342251 -7.52186,-30.4363618 -7.52186,-30.4363618 z"
       id="path54-2"
       sodipodi:nodetypes="cssssssc" />
    <path
       sodipodi:nodetypes="cssssssc"
       id="path54"
       d="m 19.758784,67.852102 c 0,0 5.787965,13.507716 12.866724,23.522937 5.145655,7.280211 9.712511,15.187461 23.540909,18.761421 7.959764,2.0572 18.477434,0.009 22.510072,-3.32784 7.334862,-6.06974 12.33013,-14.172036 11.78651,-21.999846 C 90.153321,80.349626 85.997909,70.641151 81.033394,67.539498 71.961675,61.871807 61.460783,60.978476 50.315377,60.834617 39.973921,60.701134 19.758784,67.852102 19.758784,67.852102 Z"
       style="fill:#00ff00;stroke:#000000;stroke-width:0.264583px;stroke-linecap:butt;stroke-linejoin:miter;stroke-opacity:1" />
    <path
       sodipodi:nodetypes="ccccc"
       id="path117"
       d="m 130.79141,92.324406 -2.70037,7.801064 -21.60296,-5.700779 1.20016,-7.501026 z"
       style="fill:#008000;stroke:#000000;stroke-width:0.264583px;stroke-linecap:butt;stroke-linejoin:miter;stroke-opacity:1" />
  </g>
</svg>
